<?xml version="1.0" standalone="no"?>
<!DOCTYPE svg PUBLIC "-//W3C//DTD SVG 1.1//EN" "http://www.w3.org/Graphics/SVG/1.1/DTD/svg11.dtd" >
<!--
2013-9-30: Created.
-->
<svg>
<metadata>
Created by iconfont
</metadata>
<defs>

<font id="iconfont" horiz-adv-x="1024" >
  <font-face
    font-family="iconfont"
    font-weight="500"
    font-stretch="normal"
    units-per-em="1024"
    ascent="896"
    descent="-128"
  />
    <missing-glyph />
    
    <glyph glyph-name="shequyiyuan" unicode="&#59278;" d="M996.194462 398.375385V-99.249231H106.574769V398.375385H0V504.910769L568.989538 896 1102.769231 504.910769v-106.535384h-106.574769zM551.384615 647.68a302.158769 302.158769 0 0 1-302.08-302.119385c0-166.833231 135.286154-303.064615 302.08-303.064615A302.158769 302.158769 0 0 1 853.464615 344.615385c0 166.793846-135.286154 303.025231-302.08 303.02523z m53.76-498.609231h-107.52V291.84h-141.784615v106.574769h142.729846V541.065846h106.574769v-142.690461h142.690462v-106.57477h-142.690462v-142.729846z"  horiz-adv-x="1102" />

    
    <glyph glyph-name="weishengyuan" unicode="&#59279;" d="M640.182857 794.550857c10.605714 0 18.870857-3.547429 20.077714-15.36V723.748571c0-10.605714-9.508571-22.418286-20.114285-22.418285h-82.541715v-79.030857c0-9.435429-7.094857-22.418286-17.700571-22.418286h-56.685714c-10.605714 0-18.834286 11.776-18.834286 22.418286V701.330286H381.805714c-10.605714 0-18.870857 11.812571-18.870857 22.418285V780.361143c0 9.472 8.265143 14.189714 18.870857 14.189714h82.578286V881.846857c0 9.435429 8.265143 14.153143 18.870857 14.153143h55.478857c10.605714 0 18.870857-3.547429 18.870857-14.153143v-87.296h82.541715z m297.325714-864.438857c15.36 0 28.306286-12.982857 28.306286-28.306286 0-15.36-12.982857-28.306286-28.306286-28.306285H83.309714a28.708571 28.708571 0 0 0-28.306285 28.306285c0 15.36 12.982857 28.306286 28.306285 28.306286h18.870857V698.148571c0 33.060571 4.754286 33.060571 9.435429 33.060572h193.536v-33.060572c0-40.082286 33.024-77.860571 74.349714-77.860571h28.306286v-23.588571c0-41.325714 33.024-79.030857 74.313143-79.030858h56.649143c41.289143 0 74.313143 37.741714 74.313143 79.030858v23.588571h27.136c41.325714 0 75.52 36.571429 75.52 77.897143v33.024h193.462857c4.754286 0 9.472 0 9.472-33.060572v-768h18.870857l-0.036572-0.036571zM244.955429 456.301714v-88.502857h222.976v88.502857c0 5.888-4.754286 4.754286-9.435429 4.754286H254.390857c-4.754286 0-9.435429 0-9.435428-4.754286z m224.182857-418.816V312.32h-223.085715v-274.870857c0-5.924571 4.754286-14.153143 9.472-14.153143h204.068572c4.754286 0 9.472 9.435429 9.472 14.153143l0.073143 0.036571z m83.748571 418.816v-88.502857h222.976v88.502857c0 5.888-5.888 4.754286-10.605714 4.754286h-204.105143c-4.754286 0-8.265143 0-8.265143-4.754286z m222.976-418.816V312.32h-222.976v-274.870857c0-5.924571 3.547429-14.153143 8.265143-14.153143h204.068571c4.754286 0 10.605714 9.435429 10.605715 14.153143v0.036571z"  horiz-adv-x="1024" />

    
    <glyph glyph-name="yiyuan1" unicode="&#59280;" d="M1473.097143-17.310476c1.80419 5.266286 2.82819 10.873905 2.82819 16.725333v614.4c0 29.159619-24.624762 52.760381-55.100952 52.760381h-306.517333v-653.994667c0-10.48381-1.950476-20.528762-5.461334-29.891047h-35.986285c1.852952 5.266286 2.876952 10.873905 2.876952 16.725333V843.337143C1075.687619 872.399238 1051.062857 896 1020.586667 896h-480.938667c-30.427429 0-55.100952-23.600762-55.100952-52.711619v-843.873524c0-5.851429 1.072762-11.459048 2.925714-16.725333H451.535238a85.138286 85.138286 0 0 0-5.461333 29.891047V666.575238H146.870857c-30.427429 0-55.100952-23.600762-55.100952-52.760381v-614.4c0-5.851429 1.072762-11.459048 2.925714-16.725333H0v-109.031619h1560.380952V-17.310476h-87.283809zM256.975238 198.070857H178.078476v75.580953H256.975238v-75.580953z m0 132.729905H178.078476v75.580952H256.975238v-75.580952z m0 128.341333H178.078476V534.674286H256.975238v-75.580953z m123.026286-261.071238H301.056v75.580953h78.945524v-75.580953z m0 132.729905H301.056v75.580952h78.945524v-75.580952z m0 128.341333H301.056V534.674286h78.945524v-75.580953z m522.727619-472.941714H670.96381v276.967619h231.765333v-276.967619zM780.190476 500.443429c-107.227429 0-194.121143 83.236571-194.121143 185.929142S673.01181 872.301714 780.141714 872.301714c107.27619 0 194.169905-83.236571 194.169905-185.929143S887.466667 500.443429 780.190476 500.443429z m501.174857-302.32381h-78.994285v75.580952h78.994285v-75.580952z m0 132.632381h-78.994285V406.430476h78.994285v-75.580952z m0 128.390095h-78.994285V534.674286h78.994285v-75.580953z m122.977524-261.071238H1325.348571v75.580953H1404.342857v-75.580953z m0 132.729905H1325.348571v75.580952H1404.342857v-75.580952z m0 128.341333H1325.348571V534.674286H1404.342857v-75.580953zM828.367238 732.501333h74.361905v-92.257523h-74.361905v-71.241143h-96.353524v71.192381h-74.361904V732.550095h74.361904v71.192381h96.353524v-71.192381z"  horiz-adv-x="1560" />

    
    <glyph glyph-name="xiajiantou" unicode="&#59226;" d="M578.135828 10.81155l204.947378 355.088603c11.329675 19.435459 12.066565 44.213367 0 65.122605-12.066565 20.817127-33.896915 32.515247-56.464154 32.515247h-89.71629V738.674103c0 31.96258-25.975353 57.937933-57.937933 57.937933H445.035171c-32.054691 0-57.937933-25.975353-57.937933-57.937933v-275.043987h-83.45273c-24.685797 0-48.634704-12.803454-61.898713-35.739138-13.171899-22.843573-12.342898-50.016371 0-71.386166L441.166502 10.81155c13.632455-23.580462 39.239363-39.515697 68.438607-39.515697s54.898264 15.935234 68.530719 39.515697z"  horiz-adv-x="1024" />

    
    <glyph glyph-name="shangjiantou" unicode="&#59227;" d="M445.956283 757.18845L240.916794 402.099847c-11.329675-19.52757-12.066565-44.213367 0-65.122605 12.066565-20.909238 33.896915-32.607358 56.464154-32.607358h89.71629v-275.043987c0-31.96258 25.975353-57.937933 57.937933-57.937933h134.021769c32.054691 0 57.937933 25.975353 57.937933 57.937933V304.369884h83.45273c24.685797 0 48.634704 12.803454 61.806602 35.739138 13.171899 22.843573 12.342898 50.016371 0 71.386166L582.833498 757.18845c-13.632455 23.580462-39.239363 39.515697-68.438607 39.515697-29.199244 0-54.898264-15.935234-68.438608-39.515697z"  horiz-adv-x="1024" />

    
    <glyph glyph-name="qingkong" unicode="&#58915;" d="M90.021647 737.099294c0 29.274353 23.612235 53.067294 52.705882 53.067294h263.589647V843.053176c0 29.274353 23.491765 52.946824 52.705883 52.946824h105.411765c29.033412 0 52.705882-23.732706 52.705882-53.007059v-53.007059h263.469176c29.033412 0 52.705882-23.672471 52.705883-53.007058v-53.007059H90.021647v53.127529z m790.588235-158.780235V-74.992941c0-29.334588-23.672471-53.067294-52.705882-53.067294H195.433412a52.886588 52.886588 0 0 0-52.705883 53.007059V631.205647h737.882353v-52.826353z m-527.058823-106.014118a53.007059 53.007059 0 0 1-52.766118 53.007059 52.946824 52.946824 0 0 1-52.645647-53.007059v-441.404235c0-29.214118 23.672471-53.007059 52.705882-53.007059a52.826353 52.826353 0 0 1 52.705883 53.007059V472.304941z m210.823529 0a53.007059 53.007059 0 0 1-52.645647 53.007059 52.886588 52.886588 0 0 1-52.705882-53.007059v-441.404235c0-29.214118 23.612235-53.007059 52.705882-53.007059a52.946824 52.946824 0 0 1 52.705883 53.007059V472.304941z m210.82353 0a53.007059 53.007059 0 0 1-52.705883 53.007059 52.886588 52.886588 0 0 1-52.766117-53.007059v-441.404235c0-29.214118 23.672471-53.007059 52.766117-53.007059a52.886588 52.886588 0 0 1 52.705883 53.007059V472.304941z"  horiz-adv-x="1024" />

    
    <glyph glyph-name="fenxiang1" unicode="&#58922;" d="M848.667343-128H136.061353C78.272727-128 30.115539-77.796131 30.115539-16.034538V686.699229c0 61.761594 48.157188 111.965462 105.945814 111.965462h425.589149a38.70634 38.70634 0 0 0 0-77.23209H136.061353c-15.4103 0-28.894313-15.4103-28.894313-34.733372v-700.807479c0-19.262875 13.484013-34.733372 28.894313-34.733372h712.60599c15.4103 0 28.894313 15.4103 28.894313 34.733372V373.918293c0 21.249359 17.336588 38.646143 38.52575 38.646143 21.189163 0 38.52575-17.396784 38.525751-38.646143v-389.952831c0-61.761594-48.157188-111.965462-105.945814-111.965462z m-471.880247 231.636075a38.70634 38.70634 0 0 0-38.52575 38.646143c0 339.748962 277.325207 617.796526 616.351811 617.796527a38.70634 38.70634 0 0 0 0-77.232091c-296.648279 0-539.30031-243.253996-539.30031-540.564436a38.70634 38.70634 0 0 0-38.525751-38.646143z m442.985934 345.588021a37.081035 37.081035 0 0 0-19.262875 5.778862c-19.262875 11.617922-25.041738 34.793568-13.484013 52.130156l115.577252 200.815474-200.333903 115.818038c-19.262875 11.557725-25.041738 34.733372-13.484012 52.130156 11.557725 19.262875 34.673175 25.101934 52.009763 13.484012l233.08079-135.141109c19.262875-11.557725 24.981541-34.733372 13.484013-52.130156l-134.840127-233.562362c-5.778863-13.544209-19.262875-19.262875-32.746888-19.262875z"  horiz-adv-x="1024" />

    
    <glyph glyph-name="huangguan" unicode="&#59097;" d="M542.117647 896c15.329882 0 29.846588-6.746353 39.664941-18.371765l228.442353-271.420235 193.746824 127.879529a52.073412 52.073412 0 0 0 57.705411-0.301176c17.377882-11.715765 25.840941-32.707765 21.38353-53.067294l-129.084235-587.745883A51.501176 51.501176 0 0 0 903.529412 52.705882H180.705882a51.501176 51.501176 0 0 0-50.447058 40.267294L1.174588 680.719059a50.868706 50.868706 0 0 0 21.38353 53.067294 52.073412 52.073412 0 0 0 57.705411 0.301176l193.746824-127.879529L502.452706 877.628235C512.301176 889.253647 526.787765 896 542.117647 896zM120.470588-77.793882c0 27.708235 23.612235 50.176 52.705883 50.176h737.882353c18.823529 0 36.231529-9.547294 45.658352-25.088a48.128 48.128 0 0 0 0-50.206118c-9.426824-15.510588-26.804706-25.088-45.658352-25.088H173.176471C144.082824-128 120.470588-105.532235 120.470588-77.793882z m342.588236 351.35247c0-27.708235 23.612235-50.176 52.705882-50.176h52.705882c29.093647 0 52.705882 22.467765 52.705883 50.176 0 27.708235-23.612235 50.206118-52.705883 50.206118h-52.705882c-29.093647 0-52.705882-22.467765-52.705882-50.206118z"  horiz-adv-x="1084" />

    
    <glyph glyph-name="jiazaizhong" unicode="&#59057;" d="M300.552 99.414q0-30.284-21.427-51.711t-51.711-21.427q-29.712 0-51.425 21.713t-21.713 51.425q0 30.284 21.427 51.711t51.711 21.427 51.711-21.427 21.427-51.711z m284.553-117.707q0-30.284-21.427-51.71t-51.71-21.428-51.712 21.427-21.427 51.711 21.427 51.711 51.711 21.427 51.711-21.427 21.427-51.71z m-402.26 402.26q0-30.284-21.427-51.71t-51.71-21.428-51.712 21.427-21.427 51.711 21.427 51.711 51.711 21.427 51.711-21.427 21.427-51.71zM869.66 99.414q0-29.712-21.713-51.425t-51.426-21.713q-30.283 0-51.71 21.427t-21.428 51.711 21.427 51.711 51.711 21.427 51.711-21.427 21.428-51.711zM318.837 668.52q0-37.711-26.856-64.567t-64.567-26.855-64.567 26.855-26.856 64.567 26.856 64.568 64.567 26.855 64.567-26.855 26.856-64.568z m668.528-284.553q0-30.284-21.427-51.71t-51.71-21.428-51.712 21.427-21.427 51.711 21.427 51.711 51.711 21.427 51.711-21.427 21.427-51.71z m-365.69 402.26q0-45.711-31.998-77.71t-77.71-31.997-77.71 31.998-31.997 77.71 31.998 77.709T511.968 895.934t77.709-31.997 31.997-77.71zM924.511 668.52q0-53.139-37.712-90.565t-90.28-37.426q-53.139 0-90.565 37.426t-37.426 90.565q0 52.569 37.426 90.28t90.565 37.712q52.569 0 90.28-37.712t37.712-90.28z"  horiz-adv-x="1024" />

    
    <glyph glyph-name="jiucuo" unicode="&#59273;" d="M662.016 716.344889c0-34.531556 28.046222-62.577778 62.577778-62.577778h148.650666c18.716444 0 33.905778-15.246222 33.905778-33.962667a33.564444 33.564444 0 0 0-33.905778-33.962666h-148.650666a130.616889 130.616889 0 0 0-130.446222 130.503111l-0.056889 111.786667H159.971556c-34.531556 0-62.634667-28.103111-62.634667-62.634667v-696.32c0-34.531556 28.103111-62.577778 62.577778-62.577778h338.830222a33.962667 33.962667 0 1 0-0.568889-67.925333H159.971556a130.616889 130.616889 0 0 0-130.503112 130.503111V765.496889A130.616889 130.616889 0 0 0 159.971556 896h468.081777c18.773333 0 33.962667-15.246222 33.962667-33.962667v-145.692444z m211.228444-313.628445a33.962667 33.962667 0 0 0-33.962666 33.905778V605.752889L607.004444 835.128889a34.133333 34.133333 0 0 0-0.568888 47.957333 34.133333 34.133333 0 0 0 47.957333 0.568889l253.383111-249.230222v-197.176889c0-19.342222-15.815111-34.531556-34.531556-34.531556zM509.269333 480.540444H233.073778a33.962667 33.962667 0 0 0 0 67.868445h276.195555a33.962667 33.962667 0 0 0 0-67.868445z m180.224-51.484444a277.617778 277.617778 0 0 0 277.390223-277.390222 277.617778 277.617778 0 0 0-277.390223-277.333334 277.959111 277.959111 0 0 0-277.333333 277.333334 277.959111 277.959111 0 0 0 277.333333 277.390222z m0-67.925333a209.009778 209.009778 0 0 1-208.896-208.896 209.521778 209.521778 0 0 1 208.896-209.464889 209.009778 209.009778 0 0 1 208.896 208.896 209.521778 209.521778 0 0 1-208.896 209.464889z m-98.872889-106.496a33.564444 33.564444 0 0 0 47.957334 0l53.248-53.248 53.873778 53.248a33.564444 33.564444 0 0 0 47.957333 0 33.564444 33.564444 0 0 0 0-47.957334l-53.816889-52.679111 53.248-53.816889a33.564444 33.564444 0 0 0 0-47.957333 34.133333 34.133333 0 0 0-48.014222 0l-53.248 53.248-57.344-57.969778a34.133333 34.133333 0 0 0-47.957334 0 34.133333 34.133333 0 0 0 0 48.014222l57.344 57.912889-53.248 53.248a33.564444 33.564444 0 0 0 0 47.957334z m-244.622222 104.163555a33.962667 33.962667 0 0 0 0-67.868444H233.073778a33.962667 33.962667 0 0 0 0 67.868444h112.924444z"  horiz-adv-x="1024" />

    
    <glyph glyph-name="check" unicode="&#58940;" d="M1327.5136 817.8688a52.224 52.224 0 0 1-73.728-2.2528L558.4896 75.0592l-379.904 374.3744a52.224 52.224 0 1 1-73.3184-74.3424L523.264-36.6592l0.512-0.4096 0.4096-0.512c3.2768-3.072 7.168-4.9152 11.0592-6.9632 1.8432-1.024 3.4816-2.6624 5.4272-3.4816a52.8384 52.8384 0 0 1 39.2192 0.4096c2.048 0.9216 3.7888 2.6624 5.7344 3.8912 3.9936 2.2528 7.9872 4.096 11.3664 7.5776l0.4096 0.6144 0.4096 0.3072 732.16 779.3664a52.0192 52.0192 0 0 1-2.3552 73.728z"  horiz-adv-x="1433" />

    
    <glyph glyph-name="xingzhuang" unicode="&#58939;" d="M921.6 840.647111h-128.568889V854.471111c0 22.869333-17.237333 41.528889-38.4 41.528889-21.162667 0-38.4-18.659556-38.4-41.528889v-13.824H309.248V854.471111c0 22.869333-17.237333 41.528889-38.4 41.528889-21.105778 0-38.4-18.659556-38.4-41.528889v-13.824H102.4c-56.547556 0-102.4-49.493333-102.4-110.705778v-747.235555C0-78.506667 45.852444-128 102.4-128h819.2c56.547556 0 102.4 49.493333 102.4 110.705778V729.884444c0 61.041778-45.852444 110.705778-102.4 110.705778zM246.158222 70.542222c-35.271111 0-64 31.004444-64 69.176889 0 38.172444 28.672 69.233778 64 69.233778s64-31.061333 64-69.233778c0-38.115556-28.672-69.176889-64-69.176889z m0 217.315556c-35.271111 0-64 31.004444-64 69.233778 0 38.115556 28.672 69.176889 64 69.176888s64-30.890667 64-69.176888c0-38.229333-28.672-69.233778-64-69.233778z m251.335111-217.315556c-35.271111 0-64 31.004444-64 69.176889 0 38.172444 28.672 69.233778 64 69.233778 35.271111 0 64-31.061333 64-69.233778 0-38.115556-28.672-69.176889-64-69.176889z m0 217.315556c-35.271111 0-64 31.004444-64 69.233778 0 38.115556 28.672 69.176889 64 69.176888 35.271111 0 64-30.890667 64-69.176888 0-38.229333-28.672-69.233778-64-69.233778z m257.592889 0c-35.271111 0-64 31.004444-64 69.233778 0 38.115556 28.672 69.176889 64 69.176888 35.271111 0 64-30.890667 64-69.176888 0-38.229333-28.672-69.233778-64-69.233778zM972.8 619.235556H51.2V729.941333c0 30.549333 22.983111 55.352889 51.2 55.352889h130.048v-13.824c0-22.869333 17.294222-41.528889 38.4-41.528889 21.162667 0 38.4 18.659556 38.4 41.528889v13.824h406.983111v-13.824c0-22.869333 17.237333-41.528889 38.4-41.528889 21.162667 0 38.4 18.659556 38.4 41.528889v13.824h128.568889c28.216889 0 51.2-24.803556 51.2-55.352889v-110.705777z"  horiz-adv-x="1024" />

    
    <glyph glyph-name="icon_introduce" unicode="&#58938;" d="M311.6032 689.7152v-59.2384a46.08 46.08 0 0 1 46.08-46.08h329.1136a46.08 46.08 0 0 1 46.08 46.08V689.664H798.72a92.16 92.16 0 0 0 92.16-92.16V97.28a92.16 92.16 0 0 0-92.16-92.16H245.76A92.16 92.16 0 0 0 153.6 97.28V597.5552a92.16 92.16 0 0 0 92.16 92.16h65.8432z m0-263.2704h421.2736V479.0784H311.6544V426.496z m0-158.0032h421.2736V321.024H311.6544v-52.6336z m0-158.0032h421.2736v52.736H311.6544v-52.736zM410.2656 742.4h223.8464a46.08 46.08 0 0 0 46.08-46.08v-13.1584a46.08 46.08 0 0 0-46.08-46.08H410.2656a46.08 46.08 0 0 0-46.08 46.08V696.32a46.08 46.08 0 0 0 46.08 46.08z"  horiz-adv-x="1024" />

    
    <glyph glyph-name="icon_group" unicode="&#58937;" d="M614.8608 364.8512a227.7376 227.7376 0 0 1 104.192 196.5056c-2.6624 118.6304-97.2288 216.4736-215.6544 222.72a228.0448 228.0448 0 0 1-136.0896-419.2768 18.944 18.944 0 0 0-3.1744-33.4848 333.7216 333.7216 0 0 1-201.2672-250.3168 47.616 47.616 0 0 1 47.1552-55.552H772.096A47.616 47.616 0 0 1 819.2 80.9984a333.6192 333.6192 0 0 1-201.216 250.2144 18.9952 18.9952 0 0 0-3.1232 33.6384zM981.7088 190.6176a220.8256 220.8256 0 0 1-133.3248 165.5808 12.544 12.544 0 0 0-2.048 22.1696 150.8352 150.8352 0 0 1-92.5184 277.2992 280.064 280.064 0 0 0-66.304-300.032 386.304 386.304 0 0 0 166.912-201.728h95.9488a31.5904 31.5904 0 0 1 31.3344 36.7104z m-687.2064 164.864a281.8048 281.8048 0 0 0-66.4576 300.2368l-2.2016 0.1536a150.8352 150.8352 0 0 1-89.9584-277.504 12.544 12.544 0 0 0-2.1504-22.1184A220.8256 220.8256 0 0 1 0.512 190.6176a31.5904 31.5904 0 0 1 31.2832-36.8128h95.9488a386.304 386.304 0 0 0 166.7072 201.728h0.1024z"  horiz-adv-x="1024" />

    
    <glyph glyph-name="yiyuan" unicode="&#58935;" d="M985.386667-128H37.162667A37.205333 37.205333 0 0 0 0-93.568V-43.093333a37.376 37.376 0 0 0 37.12 37.290666H99.84V798.72A99.968 99.968 0 0 0 199.552 896h423.893333a100.010667 100.010667 0 0 0 99.754667-100.224v-804.522667h50.261333v403.712a24.917333 24.917333 0 0 0 27.690667 24.874667h72.832c36.394667 0 50.218667-38.016 50.218667-73.130667v-351.061333h62.634666c20.522667 0 37.162667-16.725333 37.162667-37.333333v-50.432a37.376 37.376 0 0 0-38.613333-35.84z m-509.781334 175.573333a24.917333 24.917333 0 0 1 24.746667-24.874666h24.746667a24.746667 24.746667 0 0 1 24.746666 24.874666v73.130667a24.917333 24.917333 0 0 1-24.746666 24.874667h-26.197334a24.746667 24.746667 0 0 1-24.746666-24.874667l1.450666-73.130667z m0 175.530667c0-13.738667 11.093333-24.874667 24.746667-24.874667h24.746667c13.653333 0 24.746667 11.136 24.746666 24.874667v73.130667a24.832 24.832 0 0 1-24.746666 24.874666h-26.197334a24.746667 24.746667 0 0 1-24.746666-24.874666l1.450666-73.130667z m-199.594666-175.530667a24.917333 24.917333 0 0 1 24.746666-24.874666h24.789334a24.746667 24.746667 0 0 1 24.746666 24.874666v73.130667a24.917333 24.917333 0 0 1-24.746666 24.874667h-26.197334a24.746667 24.746667 0 0 1-24.746666-24.874667l1.408-73.130667z m0 175.530667c0-13.738667 11.093333-24.874667 24.746666-24.874667h24.789334a24.746667 24.746667 0 0 1 24.746666 24.874667v73.130667a24.917333 24.917333 0 0 1-24.746666 24.874666h-26.197334a24.746667 24.746667 0 0 1-24.746666-24.874666l1.408-73.130667z m299.349333 438.826667a37.205333 37.205333 0 0 1-37.12 37.333333h-64.128V758.485333a37.205333 37.205333 0 0 1-37.12 37.290667H386.730667a37.077333 37.077333 0 0 1-37.12-37.290667v-62.890666H286.890667c-20.48 0-37.12-16.682667-37.12-37.290667v-50.474667c0-20.608 16.64-37.290667 37.12-37.290666h62.634666v-62.933334c0-20.565333 16.64-37.290667 37.162667-37.290666h50.261333c20.48 0 37.12 16.725333 37.12 37.290666V570.538667h62.634667a37.077333 37.077333 0 0 1 37.12 37.290666l1.493333 54.101334z"  horiz-adv-x="1024" />

    
    <glyph glyph-name="yihoufu" unicode="&#59263;" d="M1035.641949 692.503273H83.41504A82.478545 82.478545 0 0 1 0.005585 609.093818v-649.029818a83.781818 83.781818 0 0 1 83.409455-83.409455h950.178909a82.478545 82.478545 0 0 1 83.409455 83.409455V609.093818c2.048 44.776727-36.584727 83.409455-81.361455 83.409455zM708.05504 332.427636c26.437818 0 40.680727-12.194909 40.680727-38.725818 0-26.437818-14.242909-38.632727-40.680727-38.632727h-99.607273v-36.584727h99.607273c26.437818 0 40.680727-12.194909 40.680727-38.632728 0-26.530909-14.242909-38.725818-40.680727-38.725818h-99.607273v-81.361454c0-18.338909-2.141091-30.533818-8.192-36.584728-6.144-6.144-16.290909-8.192-34.629818-8.192-14.242909 0-26.437818 2.048-32.581818 8.192-6.050909 6.050909-10.146909 18.245818-10.146909 36.584728v81.361454H425.244858c-26.437818 0-40.680727 12.194909-40.680727 38.725818 0 26.437818 12.194909 38.632727 38.632727 38.632728h99.700364v36.584727H425.244858c-26.437818 0-40.680727 12.194909-40.680727 38.632727 0 26.530909 12.194909 38.725818 38.632727 38.725818h56.971637c-14.242909 22.341818-28.485818 46.731636-42.728728 69.166546a2060.753455 2060.753455 0 0 1-42.728727 69.166545c-8.098909 12.194909-10.24 22.341818-8.098909 32.581818 2.048 10.146909 8.098909 16.290909 18.245818 24.389819a35.560727 35.560727 0 0 0 30.533818 8.098909c10.24-1.954909 18.338909-8.098909 26.437818-22.341818L569.721949 336.430545c18.338909 28.485818 34.536727 59.019636 52.875636 87.505455 18.338909 28.485818 34.629818 59.019636 52.875637 87.505455 6.144 8.192 10.24 14.242909 14.242909 18.338909a21.969455 21.969455 0 0 0 14.242909 6.050909c4.096 0 10.24 0 14.242909-1.954909 4.096-2.048 10.24-4.096 14.242909-8.192 12.194909-8.098909 18.338909-16.290909 18.338909-24.389819a64.232727 64.232727 0 0 0-10.24-32.581818l-85.364363-140.381091h52.875636v4.096z m203.496727 437.434182H207.505222a63.394909 63.394909 0 0 0-63.022546 63.022546c0 34.629818 28.485818 63.115636 63.022546 63.115636h704.046545c34.536727 0 63.022545-28.485818 63.022546-63.115636a62.091636 62.091636 0 0 0-63.022546-63.022546z"  horiz-adv-x="1117" />

    
    <glyph glyph-name="cuowu-s" unicode="&#58910;" d="M512 896a512 512 0 1 1 512-512A512 512 0 0 1 512 896z m181.12-647.68a32 32 0 0 0 0-45.44 32 32 0 0 0-45.44 0L512 338.88l-135.68-136a32 32 0 0 0-45.44 0 32 32 0 0 0 0 45.44L466.88 384l-136 135.68a32 32 0 0 0 45.44 45.44L512 429.12l135.68 136a32 32 0 0 0 45.44-45.44L557.12 384z"  horiz-adv-x="1024" />

    
    <glyph glyph-name="fuwu" unicode="&#59101;" d="M910.407829 875.590447c-142.589885 48.878208-236.079698-0.836254-283.541394-40.805795-0.119465-0.119465-0.119465-0.358395-0.341328-0.47786l-86.526717-86.714447-227.665956-228.348612a34.440022 34.440022 0 0 0-48.639279 0 34.644819 34.644819 0 0 0 0 48.741677L515.286223 820.209935c-40.362068 40.4474-138.579278 110.556227-299.396092 55.517043C93.302083 822.923495-162.182128 577.115941 147.146617 272.838854c309.328745-304.277087 406.7097-390.394209 406.709701-390.394209l9.352394-10.444645 9.352395 10.444645s97.380956 86.117123 406.7097 390.394209c309.328745 304.294153 53.72507 549.965176-68.862978 602.751593z"  horiz-adv-x="1126" />

    
    <glyph glyph-name="zuojiantou-k" unicode="&#58924;" d="M736-64c-6.4 0-16 3.2-22.4 9.6l-448 416c-6.4 6.4-9.6 12.8-9.6 22.4s3.2 16 9.6 22.4l448 416c12.8 12.8 32 12.8 44.8-3.2 12.8-12.8 12.8-32-3.2-44.8L336 384l422.4-393.6c12.8-12.8 12.8-32 3.2-44.8-9.6-6.4-16-9.6-25.6-9.6z"  horiz-adv-x="1024" />

    
    <glyph glyph-name="xing-k" unicode="&#58956;" d="M780.48-127.68c-12.48 0-24.96 3.2-36.48 9.28l-226.24 124.48a12.256 12.256 0 0 1-11.52 0L280-118.4c-25.92-14.08-56.64-12.48-80.64 4.8-24.96 17.6-37.44 48-32.32 78.72l43.2 263.36a17.504 17.504 0 0 1-4.48 14.72L23.04 429.44c-21.12 21.44-28.48 53.12-18.88 82.24 9.28 28.16 32.96 48.64 61.76 53.12l253.12 38.4c4.16 0.64 8 3.52 9.92 7.68l113.28 240C454.08 877.76 481.6 895.68 512 895.68c30.08 0 57.6-17.92 70.08-45.44l112.64-239.04c2.24-4.48 5.76-7.36 9.92-8l253.12-38.4c28.8-4.48 52.48-24.64 62.08-53.12 9.6-29.12 2.56-60.8-18.88-82.24l-182.72-186.56c-3.52-3.84-5.44-9.28-4.48-14.4l43.2-263.36c5.12-30.72-7.36-61.12-32.32-78.72-13.44-9.28-28.8-14.08-44.16-14.08zM512 71.68c12.48 0 25.28-3.2 36.8-9.6l225.92-124.48c5.44-2.88 9.92-1.28 12.8 0.96 1.92 1.28 8 6.4 6.4 16l-43.2 263.36c-4.16 25.28 3.84 51.2 21.76 69.76l183.04 186.56c6.72 6.72 4.48 15.04 3.84 17.28-0.96 3.2-3.84 8.96-10.88 9.92l-252.8 38.4c-25.28 3.84-47.04 20.16-58.24 43.84l-112.96 239.68c-4.8 10.56-19.52 9.92-23.36 0.64l-113.92-240c-10.56-23.36-32.64-39.68-58.24-43.84l-253.12-38.4c-6.72-0.96-9.6-6.72-10.88-9.92-0.64-2.24-2.88-10.56 3.84-17.28L251.52 288c17.92-18.56 25.92-44.48 21.76-69.76l-43.2-263.36c-1.6-9.6 4.48-14.72 6.4-16 2.88-1.92 7.36-3.84 12.8-0.64l225.92 124.48a83.2 83.2 0 0 0 36.8 8.96z"  horiz-adv-x="1024" />

    
    <glyph glyph-name="xing-s" unicode="&#58957;" d="M177.92-68.16L224 212.8c2.88 16.32-2.56 32.96-14.08 44.8l-195.2 199.04c-28.8 29.44-12.8 80.64 26.88 86.72l269.76 40.96c16 2.56 29.76 13.12 36.48 27.84L468.48 867.84C476.16 885.12 493.12 896 512 896c18.88 0 35.84-11.2 43.52-28.16l120.64-255.68c7.04-15.04 20.8-25.28 36.48-27.84l269.76-40.96c39.68-6.08 55.68-57.28 26.88-86.72l-195.2-199.04c-11.52-11.84-16.64-28.8-14.08-45.12l46.08-280.96c6.72-41.6-34.88-72.96-70.4-53.44l-241.28 132.8a47.04 47.04 0 0 1-45.12 0l-241.28-132.8c-35.52-19.52-77.12 12.16-70.08 53.76z m0 0"  horiz-adv-x="1024" />

    
    <glyph glyph-name="fenxiang" unicode="&#58919;" d="M768 265.846154C697.028923 265.846154 636.061538 223.625846 607.783385 163.131077L317.755077 296.96C340.440615 326.656 354.461538 363.441231 354.461538 403.692308c0 40.408615-14.178462 77.272615-37.021538 107.126154l286.011077 143.044923C629.444923 588.248615 693.248 541.538462 768 541.538462 865.673846 541.538462 945.230769 621.095385 945.230769 718.769231S865.673846 896 768 896 590.769231 816.443077 590.769231 718.769231c0-8.900923 1.417846-17.408 2.599385-25.915077l-304.836923-152.418462C258.048 565.326769 219.608615 580.923077 177.230769 580.923077 79.478154 580.923077 0 501.366154 0 403.692308S79.478154 226.461538 177.230769 226.461538c42.456615 0 80.896 15.596308 111.458462 40.566154l306.176-141.154462C592.344615 113.821538 590.769231 101.376 590.769231 88.615385c0-97.673846 79.556923-177.230769 177.230769-177.230769S945.230769-9.058462 945.230769 88.615385 865.673846 265.846154 768 265.846154zM768 856.615385c76.012308 0 137.846154-61.833846 137.846154-137.846154S844.012308 580.923077 768 580.923077 630.153846 642.756923 630.153846 718.769231 691.987692 856.615385 768 856.615385zM177.230769 265.846154C101.218462 265.846154 39.384615 327.68 39.384615 403.692308S101.218462 541.538462 177.230769 541.538462 315.076923 479.704615 315.076923 403.692308 253.243077 265.846154 177.230769 265.846154zM768-49.230769C691.987692-49.230769 630.153846 12.603077 630.153846 88.615385S691.987692 226.461538 768 226.461538s137.846154-61.833846 137.846154-137.846154S844.012308-49.230769 768-49.230769z"  horiz-adv-x="1024" />

    
    <glyph glyph-name="youjiantou-k" unicode="&#58923;" d="M288-64c-9.6 0-16 3.2-22.4 9.6-12.8 12.8-12.8 32 3.2 44.8L688 384 265.6 777.6c-12.8 12.8-12.8 32-3.2 44.8 12.8 12.8 32 12.8 44.8 3.2l448-416c6.4-6.4 9.6-16 9.6-22.4s-3.2-16-9.6-22.4l-448-416c-3.2-9.6-12.8-12.8-19.2-12.8z"  horiz-adv-x="1024" />

    
    <glyph glyph-name="xiajiantou-k" unicode="&#58926;" d="M512 186.24609375c-7.41577148 0-12.35961914 2.47192383-17.3034668 7.41577148l-321.35009765 346.06933594c-9.88769531 9.88769531-9.88769531 24.71923828 2.47192383 34.6069336 9.88769531 9.88769531 24.71923828 9.88769531 34.60693359-2.47192383L512 248.04418944999998 816.04663086 574.33813477c9.88769531 9.88769531 24.71923828 9.88769531 34.60693359 2.47192382 9.88769531-9.88769531 9.88769531-24.71923828 2.47192383-34.60693359l-321.35009766-346.06933594c-7.41577148-7.41577148-12.35961914-9.88769531-19.77539062-9.88769531z"  horiz-adv-x="1024" />

    
    <glyph glyph-name="qushi" unicode="&#59260;" d="M41.472 896a36.571429 36.571429 0 0 0 36.571429-36.571429l-0.073143-899.657142H1133.714286a36.571429 36.571429 0 0 0 36.571428-36.571429v-4.900571a36.571429 36.571429 0 0 0-36.571428-36.571429H36.571429a36.571429 36.571429 0 0 0-36.571429 36.571429V859.428571A36.571429 36.571429 0 0 0 36.571429 896h4.900571z m1031.753143-247.222857a38.985143 38.985143 0 0 0 0-51.638857l-3.437714-3.437715-342.528-301.933714a38.985143 38.985143 0 0 0-53.76 2.121143l-3.145143 3.657143-172.909715 229.010286-237.714285-207.213715a38.985143 38.985143 0 0 0-51.638857 0.292572l-3.437715 3.437714a38.985143 38.985143 0 0 0 0.292572 51.638857l3.510857 3.437714L477.622857 612.864a38.985143 38.985143 0 0 0 53.686857-2.267429l3.072-3.657142L707.291429 378.148571l310.930285 274.066286a38.985143 38.985143 0 0 0 55.076572-3.510857z"  horiz-adv-x="1170" />

    
    <glyph glyph-name="shuju" unicode="&#59261;" d="M896 896a128 128 0 0 0 128-128v-768a128 128 0 0 0-128-128H128a128 128 0 0 0-128 128V768a128 128 0 0 0 128 128h768z m0-64H128a64 64 0 0 1-63.808-59.2L64 768v-768a64 64 0 0 1 59.2-63.808L128-64h768a64 64 0 0 1 63.808 59.2L960 0V768a64 64 0 0 1-59.2 63.808L896 832z m-128-608a32 32 0 1 0 0-64H256a32 32 0 1 0 0 64h512z m0 192a32 32 0 1 0 0-64H256a32 32 0 0 0 0 64h512z m-480 256a32 32 0 1 0 0-64 32 32 0 0 0 0 64z m224 0a32 32 0 1 0 0-64 32 32 0 0 0 0 64z m224 0a32 32 0 1 0 0-64 32 32 0 0 0 0 64z"  horiz-adv-x="1024" />

    
    <glyph glyph-name="shijian1" unicode="&#59262;" d="M980.032 816h-216.064V852.032c0 21.568-14.336 35.968-35.968 35.968-21.632 0-36.032-14.4-36.032-36.032v-35.968H332.096V852.032c0 21.568-14.4 35.968-36.032 35.968-21.632 0-36.032-14.4-36.032-36.032v-35.968H44.032c-21.568 0-35.968-14.4-35.968-36.032v-864c0-21.568 14.4-35.968 36.032-35.968h935.936c21.632 0 36.032 14.4 36.032 36.032v864c0 21.568-14.4 35.968-36.032 35.968zM80 744h180.032v-36.032c0-21.568 14.336-35.968 35.968-35.968 21.632 0 36.032 14.4 36.032 36.032v35.968h360v-36.032c0-21.568 14.336-35.968 35.968-35.968 21.632 0 36.032 14.4 36.032 36.032v35.968h179.968V528H80V744z m864-792H80V456h864v-504z"  horiz-adv-x="1024" />

    
    <glyph glyph-name="wode1" unicode="&#59254;" d="M509.7984 896a384 384 0 0 0 238.08-685.2608l-5.9904-4.608 160.0512-128.9216c13.568-10.9568 22.016-26.88 23.552-44.0832l0.3072-5.7856v-91.3408c0-35.328-28.672-64-64-64H157.7984c-35.328 0-64 28.672-64 64v91.3408c0 19.3536 8.704 37.6832 23.808 49.8688l160 128.9216-5.9392 4.608A383.488 383.488 0 0 0 125.9008 501.0944L125.7984 512a384 384 0 0 0 384 384zM413.7984 608a32 32 0 0 1-32-32V512a32 32 0 1 1 64 0V576a32 32 0 0 1-32 32z m192 0a32 32 0 0 1-32-32V512a32 32 0 1 1 64 0V576a32 32 0 0 1-32 32z"  horiz-adv-x="1024" />

    
    <glyph glyph-name="wode0" unicode="&#59255;" d="M509.7984 896a384 384 0 0 0 238.08-685.2608l-5.9904-4.608 160.0512-128.9216c13.568-10.9568 22.016-26.88 23.552-44.0832l0.3072-5.7856v-91.3408c0-35.328-28.672-64-64-64H157.7984c-35.328 0-64 28.672-64 64v91.3408c0 19.3536 8.704 37.6832 23.808 49.8688l160 128.9216-5.9392 4.608A383.488 383.488 0 0 0 125.9008 501.0944L125.7984 512a384 384 0 0 0 384 384z m0-64a320 320 0 0 1-162.048-596.0192 32 32 0 0 0 3.84-52.48l-193.792-156.16v-91.3408h704v91.3408l-193.8432 156.16a32 32 0 0 0 3.84 52.48A320 320 0 0 1 509.7472 832zM413.7984 608c17.664 0 32-14.336 32-32V512a32 32 0 1 0-64 0V576c0 17.664 14.336 32 32 32z m192 0c17.664 0 32-14.336 32-32V512a32 32 0 1 0-64 0V576c0 17.664 14.336 32 32 32z"  horiz-adv-x="1024" />

    
    <glyph glyph-name="hulianwangzhenliao0" unicode="&#59256;" d="M601.630118 880.880941c176.670118 0 327.077647-120.350118 364.724706-289.551059v-11.264l3.734588-48.911058c135.348706-41.321412 229.376-165.406118 229.376-304.549648 0-60.175059-11.324235-142.878118-60.175059-195.523764-102.279529-116.856471-215.160471-127.337412-290.514824-127.819294H345.931294c-187.994353 0-342.136471 150.407529-345.931294 334.607058 0 142.878118 78.908235 251.964235 221.846588 297.080471C251.964235 726.678588 421.044706 880.880941 601.630118 880.880941z m0-75.294117c-142.396235 0-280.937412-126.253176-305.392942-282.322824a75.294118 75.294118 0 0 0-51.742117-60.114824c-110.471529-34.936471-169.200941-114.145882-169.261177-223.713882 2.891294-140.528941 118.964706-256 261.541647-260.758588l9.155765-0.120471h502.362353c97.761882 0.602353 166.008471 24.094118 235.821177 103.785412 26.262588 28.310588 40.056471 81.92 40.05647 144.263529 0 105.472-71.860706 200.704-176.067765 232.508236a75.294118 75.294118 0 0 0-52.404705 60.175059l-0.662589 6.083764-3.794823 48.911059-0.180706 5.782588v2.409412l-0.481882 1.867294c-32.527059 126.976-145.528471 216.847059-279.190589 221.06353L601.630118 805.647059zM602.352941 504.470588c20.781176 0 37.647059-16.865882 37.647059-37.647059v-112.880941L752.941176 353.882353a37.647059 37.647059 0 1 0 0-75.294118h-112.941176v-112.941176a37.647059 37.647059 0 1 0-75.294118 0v113.001412L451.764706 278.588235A37.647059 37.647059 0 1 0 451.764706 353.882353h112.941176V466.883765c0 20.781176 16.865882 37.647059 37.647059 37.647059z"  horiz-adv-x="1204" />

    
    <glyph glyph-name="shouye1" unicode="&#59257;" d="M512 881.777778c6.257778 0 12.458667-3.299556 18.659556-9.898667l460.458666-484.579555c12.458667-13.198222 18.659556-29.696 18.659556-49.493334 0-16.440889-6.257778-32.938667-18.659556-46.08-9.329778-13.198222-27.989333-19.797333-43.576889-19.797333h-46.648889c-6.257778 0-9.329778-6.599111-9.329777-9.898667v-262.030222a113.777778 113.777778 0 0 0-113.777778-113.777778h-528.497778a113.777778 113.777778 0 0 0-113.777778 113.777778v262.030222c0 6.599111-3.072 9.898667-9.272889 9.898667h-46.648888A64.910222 64.910222 0 0 0 14.222222 337.863111c0 19.740444 6.257778 36.238222 18.659556 49.436445L493.340444 875.178667C499.598222 878.478222 505.742222 881.777778 512 881.777778z m0-675.555556a35.555556 35.555556 0 0 1-35.555556-35.555555v-142.222223a35.555556 35.555556 0 1 1 71.111112 0v142.222223A35.555556 35.555556 0 0 1 512 206.222222z"  horiz-adv-x="1024" />

    
    <glyph glyph-name="hulianwangzhenliao1" unicode="&#59258;" d="M601.630118 896c176.670118 0 327.077647-120.350118 364.724706-289.551059v-11.264l3.734588-48.850823c135.348706-41.381647 229.376-165.466353 229.376-304.609883 0-60.114824-11.324235-142.878118-60.175059-195.463529-102.279529-116.856471-215.160471-127.337412-290.514824-127.87953H345.931294c-187.994353 0-342.136471 150.407529-345.931294 334.667295 0 142.878118 78.908235 251.904 221.846588 297.020235C251.964235 741.857882 421.044706 896 601.630118 896zM602.352941 519.589647a37.647059 37.647059 0 0 1-37.647059-37.647059v-112.880941H451.764706a37.647059 37.647059 0 0 1-37.225412-32.105412l-0.421647-5.601882c0-20.781176 16.865882-37.647059 37.647059-37.647059l112.941176 0.060235v-113.001411c0-18.853647 13.914353-34.514824 32.105412-37.225412l5.541647-0.421647c20.781176 0 37.647059 16.865882 37.647059 37.647059V293.767529H752.941176a37.647059 37.647059 0 0 1 37.225412 32.045177l0.421647 5.541647a37.647059 37.647059 0 0 1-37.647059 37.647059l-112.941176 0.060235V481.942588a37.647059 37.647059 0 0 1-32.105412 37.285647z"  horiz-adv-x="1204" />

    
    <glyph glyph-name="shouye0" unicode="&#59259;" d="M512 881.777778c5.006222 0 9.955556-2.104889 14.904889-6.314667l3.754667-3.584 460.458666-484.579555c12.458667-13.198222 18.659556-29.696 18.659556-49.493334 0-14.108444-4.551111-28.216889-13.710222-40.277333l-4.949334-5.859556c-7.964444-11.264-22.869333-17.749333-36.750222-19.342222l-6.826667-0.398222h-46.648889c-5.006222 0-7.964444-4.209778-8.988444-7.623111l-0.341333-2.275556v-262.030222a113.777778 113.777778 0 0 0-105.244445-113.493333l-8.533333-0.284445h-528.497778a113.777778 113.777778 0 0 0-113.436444 105.244445l-0.284445 8.533333v262.030222c0 5.290667-1.991111 8.419556-5.973333 9.500445l-3.413333 0.398222h-46.648889A64.910222 64.910222 0 0 0 14.222222 337.863111c0 16.952889 4.551111 31.459556 13.710222 43.576889l4.949334 5.859556L493.340444 875.178667C499.598222 878.478222 505.742222 881.777778 512 881.777778z m-1.536-71.281778L74.24 348.273778c-2.218667-2.389333-3.128889-4.835556-3.128889-10.410667 0-4.551111 2.104889-7.623111 5.575111-8.647111l2.844445-0.398222h46.648889c35.84 0 62.520889-25.713778 65.877333-59.448889l0.398222-7.338667v-262.030222a56.888889 56.888889 0 0 1 50.232889-56.490667l6.656-0.398222h528.440889a56.888889 56.888889 0 0 1 56.490667 50.232889l0.398222 6.656v262.030222c0 30.833778 22.186667 62.293333 58.254222 66.332445l7.964444 0.455111h46.648889l-2.844444-4.266667 5.063111 6.200889a10.24 10.24 0 0 1 3.128889 7.111111c0 4.209778-0.568889 6.599111-1.706667 8.533333l-1.308444 1.706667-439.409778 462.392889zM512 206.222222c19.626667 0 35.555556-15.928889 35.555556-35.555555v-142.222223a35.555556 35.555556 0 1 0-71.111112 0v142.222223c0 19.626667 15.928889 35.555556 35.555556 35.555555z"  horiz-adv-x="1024" />

    
    <glyph glyph-name="menzhenbaogao" unicode="&#59246;" d="M249.6 800V768c0-38.869333 31.530667-70.4 70.4-70.4h384A70.4 70.4 0 0 1 774.4 768v32h57.6a96 96 0 0 0 96-96V0a96 96 0 0 0-96-96h-640A96 96 0 0 0 96 0V704A96 96 0 0 0 192 800h57.6zM512 512c-20.693333 0-40.106667-8.106667-54.784-22.613333l-114.56-114.56a77.568 77.568 0 0 1 0-109.653334l114.56-114.517333c14.506667-14.549333 34.261333-22.698667 54.826667-22.656 20.693333 0 40.234667 8.106667 54.784 22.613333l114.56 114.602667a77.781333 77.781333 0 0 1 0 109.610667l-114.56 114.517333A77.269333 77.269333 0 0 1 512.042667 512z m24.832-107.946667c1.92 0 3.754667-0.682667 5.205333-2.133333s2.133333-3.285333 2.133334-5.205333v-44.928h44.928c1.962667 0 3.754667-0.725333 5.205333-2.133334 1.450667-1.450667 2.133333-3.285333 2.133333-5.205333v-49.493333a7.210667 7.210667 0 0 0-2.133333-5.205334 7.210667 7.210667 0 0 0-5.205333-2.133333h-44.928v-44.928a7.296 7.296 0 0 0-7.338667-7.381333h-49.493333a7.210667 7.210667 0 0 0-5.162667 2.176 7.722667 7.722667 0 0 0-2.176 5.205333V287.573333H435.072a7.210667 7.210667 0 0 0-5.205333 2.133334 7.210667 7.210667 0 0 0-2.133334 5.205333v49.493333c0 1.92 0.682667 3.754667 2.133334 5.162667a7.210667 7.210667 0 0 0 5.205333 2.176H480v44.928c0 1.92 0.725333 3.754667 2.133333 5.205333a7.210667 7.210667 0 0 0 5.205334 2.133334h49.493333zM704 864a32 32 0 0 0 32-32V768a32 32 0 0 0-32-32h-384A32 32 0 0 0 288 768V832A32 32 0 0 0 320 864h384z"  horiz-adv-x="1024" />

    
    <glyph glyph-name="tijianbaogao" unicode="&#59247;" d="M249.6 800V768c0-38.869333 31.530667-70.4 70.4-70.4h384A70.4 70.4 0 0 1 774.4 768v32h57.6a96 96 0 0 0 96-96V0a96 96 0 0 0-96-96h-640A96 96 0 0 0 96 0V704A96 96 0 0 0 192 800h57.6z m198.4-192H400a24.021333 24.021333 0 0 1-23.765333-20.736l-0.213334-3.285333v-176c0-1.877333 0.213333-3.754667 0.64-5.546667a136.106667 136.106667 0 0 1 112.853334-120.576l6.485333-0.938667v-184.917333a96 96 0 0 1 191.829333-5.632l0.170667 5.632v50.005333a64 64 0 1 1-36.778667 1.450667l4.778667-1.450667v-50.005333a64 64 0 0 0-127.829333-4.778667l-0.170667 4.778667v184.917333a136.106667 136.106667 0 0 1 119.338667 121.514667l0.512 2.730667 0.170666 2.816V584.064a24.021333 24.021333 0 0 1-20.778666 23.765333l-3.242667 0.213334H576a23.978667 23.978667 0 0 1-3.242667-47.786667l3.242667-0.213333h24.021333v-144a87.978667 87.978667 0 0 0-175.872-5.376l-0.128 5.376V560H448a23.978667 23.978667 0 0 1 3.242667 47.786667L448 608z m224-368a32 32 0 1 0 0-64 32 32 0 0 0 0 64zM704 864a32 32 0 0 0 32-32V768a32 32 0 0 0-32-32h-384A32 32 0 0 0 288 768V832A32 32 0 0 0 320 864h384z"  horiz-adv-x="1024" />

    
    <glyph glyph-name="zhuyuanbaogao" unicode="&#59248;" d="M249.6 800V768c0-38.869333 31.530667-70.4 70.4-70.4h384A70.4 70.4 0 0 1 774.4 768v32h57.6a96 96 0 0 0 96-96V0a96 96 0 0 0-96-96h-640A96 96 0 0 0 96 0V704A96 96 0 0 0 192 800h57.6z m81.066667-320h-42.666667v-320h42.666667v64h384v-64h42.666666v192a85.333333 85.333333 0 0 1-85.333333 85.333333h-170.666667v-149.333333h-170.666666v192z m85.333333-42.666667c-35.413333 0-64-28.586667-64-64s28.586667-64 64-64 64 28.586667 64 64-28.586667 64-64 64z m288 426.666667a32 32 0 0 0 32-32V768a32 32 0 0 0-32-32h-384A32 32 0 0 0 288 768V832A32 32 0 0 0 320 864h384z"  horiz-adv-x="1024" />

    
    <glyph glyph-name="jiancha1" unicode="&#59249;" d="M947.2 896c33.735111 0 63.146667-15.758222 82.773333-44.828444l2.56-4.209778 322.56-620.430222c18.773333-37.546667 11.093333-83.626667-18.375111-112.64C1149.496889-43.121778 918.186667-128 682.666667-128S215.893333-43.121778 31.573333 111.331556c-32.426667 32.028444-40.106667 78.108444-21.333333 114.801777L335.36 851.228444C354.588444 880.241778 384 896 418.133333 896zM341.788444 362.211556a42.666667 42.666667 0 0 1 5.12-60.131556c95.118222-80.668444 214.584889-124.984889 336.213334-124.984889 121.571556 0 241.038222 44.373333 336.213333 124.984889a43.064889 43.064889 0 0 1 5.12 60.131556 44.088889 44.088889 0 0 1-61.041778 5.12C883.655111 300.032 783.815111 262.826667 682.666667 262.826667a435.086222 435.086222 0 0 0-280.746667 104.561777 42.666667 42.666667 0 0 1-60.188444-5.12z m114.346667 201.386666a43.064889 43.064889 0 0 1 5.12-60.131555A345.372444 345.372444 0 0 1 682.666667 422.001778a343.324444 343.324444 0 0 1 220.558222 81.066666 42.666667 42.666667 0 0 1 5.12 60.131556 43.008 43.008 0 0 1-60.131556 5.575111c-94.321778-78.961778-237.681778-78.961778-331.946666 0a43.064889 43.064889 0 0 1-60.131556-5.12z"  horiz-adv-x="1365" />

    
    <glyph glyph-name="dangriguahao" unicode="&#59250;" d="M252.369455 781.079273v-122.181818c0-40.494545 31.511273-73.588364 71.354181-76.19491l4.980364-0.139636A76.334545 76.334545 0 0 1 404.945455 653.870545l0.139636 5.02691V781.079273h213.829818v-122.181818a76.334545 76.334545 0 0 1 152.576-5.02691l0.139636 5.02691V781.079273h168.029091c33.698909 0 61.067636-27.322182 61.067637-61.067637v-763.671272c0-33.698909-27.368727-61.067636-61.114182-61.067637H84.386909A61.114182 61.114182 0 0 0 23.272727-43.613091V719.965091c0 33.745455 27.368727 61.067636 61.114182 61.067636h167.982546zM512 445.067636a30.533818 30.533818 0 0 1-30.347636-26.996363l-0.186182-3.537455v-122.181818H359.284364a30.533818 30.533818 0 0 1-30.347637-26.996364l-0.232727-3.537454c0-15.685818 11.822545-28.578909 26.996364-30.347637l3.584-0.186181h122.181818v-122.181819c0-15.685818 11.776-28.578909 26.996363-30.347636l3.537455-0.232727a30.533818 30.533818 0 0 1 30.347636 26.996363l0.186182 3.584v122.181819h122.181818a30.533818 30.533818 0 0 1 30.347637 26.996363l0.232727 3.537455a30.533818 30.533818 0 0 1-26.996364 30.347636l-3.584 0.186182h-122.181818v122.181818a30.533818 30.533818 0 0 1-26.996363 30.347637L512 445.114182zM328.704 872.727273c16.896 0 30.580364-13.684364 30.580364-30.533818v-183.296a30.533818 30.533818 0 1 0-61.114182 0V842.193455C298.170182 859.042909 311.854545 872.727273 328.750545 872.727273z m366.545455 0c16.896 0 30.580364-13.684364 30.580363-30.533818v-183.296a30.533818 30.533818 0 1 0-61.114182 0V842.193455c0 16.849455 13.684364 30.533818 30.533819 30.533818z"  horiz-adv-x="1024" />

    
    <glyph glyph-name="jiankangjiaoyu" unicode="&#59251;" d="M1075.2 883.2a115.2 115.2 0 0 0 115.2-115.2v-768A115.2 115.2 0 0 0 1075.2-115.2H415.1296c27.904 12.4928 46.7968 38.5536 49.152 68.9664l0.3072 6.6048v123.392l46.592-21.248 3.4304-1.8432 6.656-2.8672c56.0128-22.2208 121.7536-2.7648 155.392 45.4144l4.0448 6.144 112.4352 184.6784 4.608 8.2944 3.4304 7.68 3.2768 8.5504c6.8608 20.1216 8.6528 40.96 5.632 61.0816l-1.536 8.6016-1.6384 6.4512 36.7616 73.5744 2.8672 6.4 2.048 6.3488c10.24 35.7376-2.6624 72.0896-31.1808 92.3648l-5.5296 3.584-5.5296 3.072-5.632 2.56a83.3024 83.3024 0 0 1-102.912-34.4576l-3.072-5.4272-27.4944-55.0912-5.2736-0.7168-7.7824-1.536c-30.9248-7.168-58.368-24.8832-76.6976-50.6368l-4.4032-6.6048-47.9744-78.7456-54.8864 30.72-8.704 5.3248-12.8 7.6288a448.9728 448.9728 0 0 1-69.0176 33.9456 181.6576 181.6576 0 0 1 52.5312 127.8976A182.4256 182.4256 0 0 1 192 727.808V768A115.2 115.2 0 0 0 307.2 883.2h768z m-305.664-340.5312l4.1472-0.256a37.2736 37.2736 0 0 0 31.7952-45.1072l-1.28-4.4032-1.7408-3.9936-45.6704-91.392 2.7648-6.2464c7.5776-19.0464 8.192-40.6016 0.512-60.416l-2.816-6.5024-3.4304-6.3488-112.4352-184.576-3.584-5.3248a85.0944 85.0944 0 0 0-58.368-33.024l-6.912-0.5632h-6.2976a80.128 80.128 0 0 0-24.6784 4.7104l-5.888 2.4576-5.376 2.7648-111.7696 50.8416v-194.9184l-0.256-4.352a37.2224 37.2224 0 0 0-28.416-31.8464l-4.1472-0.7168-4.352-0.256h-305.664l-4.9152 0.3072a37.1712 37.1712 0 0 0-31.0272 27.1872l-0.9216 4.7616-0.3072 4.9152v252.672l-0.1024 4.608c-0.1024 47.36 27.904 130.2528 129.024 165.2736l10.3936 3.328 9.6256 2.7136c6.5536 1.6896 13.312 3.2256 20.48 4.5056l10.8032 1.792 10.752 1.4336 30.0544 0.256 4.7616 0.4096c5.1712 0.4096 11.52 0.6144 17.664 0.6144 58.0096 0 99.1232-18.432 145.5104-45.8752l10.0352-5.9904 10.24-6.2464 93.696-52.3776 70.8608 116.4288 3.7376 5.4784c14.4384 19.456 37.12 31.1296 60.672 33.1776l6.4 0.3072 6.4512-0.1536 6.4512-0.6144 39.936 79.9744 2.4576 4.1984a37.12 37.12 0 0 0 26.624 16.128l4.5568 0.256zM250.0608 691.2a136.3456 136.3456 0 0 0 136.1408-136.2944c0-42.1888-19.3024-80.0256-49.5616-104.96l-6.1952-4.864-5.7856-3.9936c-21.4016-14.08-47.104-22.3232-74.5984-22.3232A136.448 136.448 0 0 0 113.664 555.008 136.3968 136.3968 0 0 0 250.0096 691.2z"  horiz-adv-x="1228" />

    
    <glyph glyph-name="yuyueguahao1" unicode="&#59252;" d="M546.909091 872.727273A104.727273 104.727273 0 0 0 651.636364 768V-104.727273H128A104.727273 104.727273 0 0 0 23.272727 0V768A104.727273 104.727273 0 0 0 128 872.727273h418.909091z m349.090909-349.090909a104.727273 104.727273 0 0 0 104.727273-104.727273v-418.909091a104.727273 104.727273 0 0 0-104.727273-104.727273h-209.454545V523.636364h209.454545zM372.363636 663.272727H302.545455v-104.727272H197.818182v-69.818182H302.545455V384H372.363636V488.727273h104.727273v69.818182H372.363636V663.272727z"  horiz-adv-x="1024" />

    
    <glyph glyph-name="dangan" unicode="&#59253;" d="M904.021333 832c30.890667 0 55.978667-25.088 55.978667-56.021333v-784c0-30.890667-25.088-55.978667-56.021333-55.978667H120.021333A56.021333 56.021333 0 0 0 64-7.978667V775.978667c0 30.890667 25.088 55.978667 56.021333 55.978666h784z m-140.032-672h-336a27.989333 27.989333 0 0 1-4.138666-55.68l4.138666-0.341333h336a27.989333 27.989333 0 0 1 4.138667 55.722666l-4.138667 0.298667z m-448 0H260.010667a27.989333 27.989333 0 0 1-4.138667-55.68l4.138667-0.341333h55.978666a27.989333 27.989333 0 0 1 4.138667 55.722666l-4.138667 0.298667z m448 112h-336a27.989333 27.989333 0 0 1-4.138666-55.68l4.138666-0.341333h336a27.989333 27.989333 0 0 1 4.138667 55.722666l-4.138667 0.298667z m-448 0H260.010667a27.989333 27.989333 0 0 1-4.138667-55.68l4.138667-0.341333h55.978666a27.989333 27.989333 0 0 1 4.138667 55.722666l-4.138667 0.298667z m147.072 376.917333c-14.250667-10.837333-23.893333-24.533333-26.88-41.301333-5.717333-32.426667 7.594667-57.557333 37.034667-76.245333a26.496 26.496 0 0 0-9.045333-1.834667l-26.837334-0.042667c-22.144-0.554667-37.034667-14.549333-37.12-35.285333l-0.213333-101.76c0-6.229333 2.261333-8.448 8.96-8.448 68.864 0.128 137.728 0.128 206.506667 0 6.272 0 8.533333 2.005333 8.533333 7.978667L623.786667 494.506667c-0.128 20.778667-14.976 34.517333-37.376 34.986666-10.837333 0.256-21.632 0-32.512 0.085334l-4.010667 0.469333-4.010667 0.725333-0.810666 1.749334c20.736 12.202667 34.432 28.885333 37.802666 51.456 3.413333 22.954667-3.84 43.178667-21.333333 59.733333a77.738667 77.738667 0 0 1-98.474667 5.248z"  horiz-adv-x="1024" />

    
    <glyph glyph-name="yuyueguahao" unicode="&#59241;" d="M546.909091 872.727273A104.727273 104.727273 0 0 0 651.636364 768V-104.727273H128A104.727273 104.727273 0 0 0 23.272727 0V768A104.727273 104.727273 0 0 0 128 872.727273h418.909091z m349.090909-349.090909a104.727273 104.727273 0 0 0 104.727273-104.727273v-418.909091a104.727273 104.727273 0 0 0-104.727273-104.727273h-209.454545V523.636364h209.454545zM372.363636 663.272727H302.545455v-104.727272H197.818182v-69.818182H302.545455V384H372.363636V488.727273h104.727273v69.818182H372.363636V663.272727z"  horiz-adv-x="1024" />

    
    <glyph glyph-name="xiaoxi" unicode="&#59242;" d="M992 847.9744c19.2 0 32-12.8 32-32v-704c0-19.1488-12.8-31.9488-32-31.9488h-371.2l-150.4256-150.4256a34.56 34.56 0 0 0-22.3744-9.6256 34.56 34.56 0 0 0-22.4256 9.6256 30.9248 30.9248 0 0 0 0 44.8l160.0512 160a29.0304 29.0304 0 0 0 22.3744 9.6256h352v640H64v-640h329.6256c19.2 0 32-12.8 32-32.0512 0-19.1488-12.8-31.9488-32.0512-31.9488H32c-19.2 0-32 12.8-32 31.9488V815.9744C0 835.1744 12.8 847.9744 32 847.9744zM259.1744 508.7744c28.8256 0 54.4256-25.6 54.4256-54.3744 0-19.2-12.8-38.4-28.8256-48.0256-19.2-9.5744-41.5744-9.5744-57.6 0a52.7872 52.7872 0 0 0-28.7744 48.0256c0 32 25.6 54.4256 60.8256 54.4256z m220.8256-6.4c19.2 9.6256 41.6256 9.6256 57.6 0 19.2-9.5744 28.8256-28.7744 28.8256-47.9744 0-28.8256-25.6-54.4256-60.8256-54.4256-28.8256 0-54.4256 25.6-54.4256 54.4256 0 19.2 12.8 38.4 28.8256 48.0256z m259.2256 0c19.1488 9.6256 41.5744 9.6256 57.5488 0 19.2512-9.5744 28.8256-28.7744 28.8256-47.9744 0-28.8256-25.6-54.4256-60.8256-54.4256-28.7744 0-54.3744 25.6-54.3744 54.4256 0 19.2 12.8 38.4 28.8256 48.0256z"  horiz-adv-x="1024" />

    
    <glyph glyph-name="shebaoka" unicode="&#59243;" d="M1024 896a146.285714 146.285714 0 0 0 146.285714-146.285714v-731.428572a146.285714 146.285714 0 0 0-146.285714-146.285714H146.285714a146.285714 146.285714 0 0 0-146.285714 146.285714V749.714286a146.285714 146.285714 0 0 0 146.285714 146.285714h877.714286z m54.857143-402.285714h-987.428572v-475.428572a54.857143 54.857143 0 0 1 49.590858-54.601143L146.285714-36.571429h877.714286a54.857143 54.857143 0 0 1 54.601143 49.590858L1078.857143 18.285714V493.714286zM987.428571 182.857143v-109.714286h-292.571428v109.714286h292.571428z m36.571429 621.714286H146.285714a54.857143 54.857143 0 0 1-54.601143-49.590858L91.428571 749.714286v-146.285715h987.428572V749.714286a54.857143 54.857143 0 0 1-49.590857 54.601143L1024 804.571429z"  horiz-adv-x="1170" />

    
    <glyph glyph-name="jiankangka" unicode="&#59244;" d="M1024 896a146.285714 146.285714 0 0 0 146.285714-146.285714v-731.428572a146.285714 146.285714 0 0 0-146.285714-146.285714H146.285714a146.285714 146.285714 0 0 0-146.285714 146.285714V749.714286a146.285714 146.285714 0 0 0 146.285714 146.285714h877.714286z m0-91.428571H146.285714a54.857143 54.857143 0 0 1-54.601143-49.590858L91.428571 749.714286v-731.428572a54.857143 54.857143 0 0 1 49.590858-54.601143L146.285714-36.571429h877.714286a54.857143 54.857143 0 0 1 54.601143 49.590858L1078.857143 18.285714V749.714286a54.857143 54.857143 0 0 1-49.590857 54.601143L1024 804.571429zM640 457.142857v-128H768v-109.714286h-128V91.428571h-109.714286v128H402.285714v109.714286h128V457.142857h109.714286zM356.571429 694.857143a45.714286 45.714286 0 0 0 0-91.428572h-128a45.714286 45.714286 0 1 0 0 91.428572h128z m585.142857 0a45.714286 45.714286 0 0 0 0-91.428572h-128a45.714286 45.714286 0 0 0 0 91.428572h128z"  horiz-adv-x="1170" />

    
    <glyph glyph-name="shuxinjiuyi" unicode="&#59245;" d="M1133.706593 896a36.57118 36.57118 0 0 0 36.57118-36.57118v-18.285591a36.57118 36.57118 0 0 0-36.57118-36.57118h-36.571181v-588.613149a91.427951 91.427951 0 0 0-43.885416-78.116041l-409.670363-249.488593a109.713541 109.713541 0 0 0-113.882656-0.146285L117.210633 137.87943A91.427951 91.427951 0 0 0 73.142361 216.141756V804.572049H36.57118a36.57118 36.57118 0 0 0-36.57118 36.57118V859.42882a36.57118 36.57118 0 0 0 36.57118 36.57118h1097.135413z m-127.999132-91.427951h-841.137149v-588.466864l412.449773-249.671449a18.28559 18.28559 0 0 1 15.981605-1.462847l2.998837 1.462847L1005.707461 215.995471V804.572049z m-294.580858-111.103246l64.621276-64.621276L677.188548 530.288196H767.994789v-91.427951h-127.999132V384.003474H767.994789v-91.427951h-127.999132V164.576392h-109.713541v127.999131H402.282985V384.003474h127.999131v54.856771H402.282985V530.288196h90.769669l-98.52276 98.559331 64.621276 64.621276L585.138887 567.517658l125.987716 125.951145z"  horiz-adv-x="1170" />

    
    <glyph glyph-name="yundong" unicode="&#59217;" d="M396.322153 701.587718c103.794094 6.646912 135.239103-14.380339 158.82286-25.277441 23.519844-10.769276 134.216501-70.463663 154.029413-75.097328 19.876825-4.633665 103.634312-43.652319 208.962309 86.985075 0 0 37.165188 31.95631 82.447279 0 45.058397-31.924353 7.030388-77.238401 7.030388-77.2384s-108.172108-179.594461-337.778194-121.370065c-23.200281-39.210392-116.896181-208.227314-116.896181-208.227314s132.043472-82.543148 175.120578-125.204821c43.045149-42.661673 109.674055-212.189897 109.674055-212.189897s4.857359-47.135557-32.659349-65.318697c-37.516708-18.055315-69.121498 5.272791-75.352978 15.530766-6.23148 10.257975-81.232939 175.120577-100.438682 192.185247-19.173786 17.192495-169.879743 118.557909-205.031683 121.050501-11.95166-13.741213-107.692764-112.933599-228.966959-112.933598S0 146.05923 0 178.974229s40.712339 85.195522 86.473774 65.989779c45.569698-19.333567 129.518923-80.689682 252.135284 68.482372 75.544716 138.594515 144.506433 262.808691 144.506433 262.808691s-103.123012 58.703741-217.302907-88.007677c-33.17065-34.225208-111.048176 9.26733-100.2789 53.271169 10.769276 43.971882 112.869686 150.002918 230.788469 160.101111zM703.006858 877.443291A127.793283 127.793283 0 1 0 830.864053 656.113889 127.793283 127.793283 0 1 0 703.038814 877.443291z"  horiz-adv-x="1024" />

    
    <glyph glyph-name="yinshi" unicode="&#59218;" d="M944.21408 587.584a688.096 688.096 0 0 1-106.112 133.312C795.95808 762.144 750.51808 795.04 703.47808 818.752 643.83008 848.768 581.36608 864 517.78208 864h-11.328c-63.552 0-126.08-15.136-185.792-44.992-47.04-23.712-92.352-56.64-134.656-97.856A689.28 689.28 0 0 1 79.92608 587.84c-23.904-11.84-82.784-47.904-79.68-114.816 1.536-31.808 5.376-116.256 38.464-206.848 18.88-51.52 44.192-97.024 75.616-135.104a384 384 0 0 1 125.44-100.16c3.584-20.96 13.888-40.416 30.112-56.992 23.552-24.192 59.52-42.688 106.56-54.912 40.768-10.56 87.712-15.616 135.744-14.88 3.104-0.128 6.336-0.128 9.44-0.128 44.8 0 88.32 5.216 126.176 14.88 47.04 12.224 82.784 30.592 106.56 54.912 16.352 16.576 26.528 36.064 30.08 56.96a384.32 384.32 0 0 1 125.472 100.16c31.424 38.144 56.736 83.616 75.616 135.136 33.216 90.88 37.056 175.168 38.496 206.848 2.976 66.56-55.936 102.848-79.808 114.688zM889.71808 428.384c-120.896-23.584-246.368-30.72-355.68-30.72-57.344 0-110.016 2.048-155.296 4.736-142.176 8.448-239.552 25.28-243.744 25.984a28.96 28.96 0 0 0-23.296 33.408 28.672 28.672 0 0 0 32.96 23.584c0.96-0.128 99.072-16.96 238.24-25.28 127.968-7.616 317.824-9.568 495.936 25.152a28.512 28.512 0 0 0 33.344-22.976 28.608 28.608 0 0 0-22.464-33.888z"  horiz-adv-x="1024" />

    
    <glyph glyph-name="yinjiu" unicode="&#59219;" d="M928 606.624V896H96v-289.376c0-208.768 185.824-378.048 415.232-378.432h-23.68v-311.68H144.896V-128h734.144v44.512H536.48v311.68h-23.68C742.144 228.576 928 397.856 928 606.624z m-416-289.408c-146.592 0-268.8 90.72-305.632 213.44 21.536-13.024 76.928-35.36 207.392-35.36 172.544 0 388.288 78.592 413.76 88.096-13.184-148.8-148.576-266.176-315.52-266.176z"  horiz-adv-x="1024" />

    
    <glyph glyph-name="chouyan" unicode="&#59220;" d="M550.771884 856.172446c7.645611-10.364761 21.753202-52.143705 28.567073-73.225117 60.844986 5.566261 118.139082 7.453671 130.807122-5.246361 21.209372-21.337332-59.949266-88.772259-95.330209-112.476851 4.92646-27.127523 12.060231-75.368447 20.057732-94.946329 10.332771-25.240112-5.886161-53.263355-5.886161-53.263355l-22.137082-42.034864-8.861231-22.424992-2.04736-4.158701a20.921462 20.921462 0 0 1 2.04736-21.465292l19.194002-26.231802s60.461106 29.430803 72.297407 26.615682c11.804311-2.81512 41.299094-106.52671 41.299094-106.52671l-4.03074-26.871603c-0.25592-1.5995 0.3199-3.23099 1.47154-4.4786 0 0 146.002374-159.982006 197.378319-221.754702 4.7985-5.758201 7.965511-12.668041 9.149141-19.961762 6.429991-39.987504 28.055233-175.401187 24.760263-175.401187H64.331896c-4.89447 0 89.476039 113.532521 89.476039 113.532521 0.22393 0.22393 85.413308 100.60856 85.573258 100.89647l70.218057 119.514652a5.182381 5.182381 0 0 1 0.76776 2.17532s8.157451 53.327335 11.228491 53.167385c11.356451-0.6398 46.193565-8.573321 46.193565 0.3199 0 22.424992 5.1184 39.763574-2.97507 33.653483-22.105092-16.826742-30.966323-26.647673-60.461106-5.59825-10.172821 7.229741-10.364761 35.029053-17.722462 44.849984-3.39094 4.51059-14.715401 2.43124-16.378882 3.422931a5.854171 5.854171 0 0 0-1.21562 0.92771l-107.71034-102.30403-13.563762 12.859981 114.652172 108.925961h-5.822181a10.684661 10.684661 0 0 0-10.172821 6.90984l-0.51184 2.14333c-1.53552 13.435801-5.438301 37.172384-13.883661 37.172384-11.836301 0-26.551703-9.820931-39.859544 0-3.199 2.36726 2.01537 26.743643 8.221431 49.744455-47.953015-12.188191-96.961699-17.594502-105.599001 7.709591-12.220181 35.732833 27.703343 102.17607 53.711216 140.020243l2.8791 7.549641c-11.644361 37.140394-27.095533 88.804249-27.095533 101.92015 0 21.017432 92.994939 142.931334 218.427741 173.769697 125.400812 30.838363 197.698219-15.419182 208.062981-29.430803z"  horiz-adv-x="1024" />

    
    <glyph glyph-name="zhiye" unicode="&#59221;" d="M599.744 896c73.728 0 36.8-40.416 36.8-40.416l-158.048-181.28s87.584-262.816 148.096-452.8A190.304 190.304 0 0 0 736 256c105.6 0 192-86.4 192-192s-86.4-192-192-192a192.384 192.384 0 0 0-164.768 93.76c1.184-3.84 2.496-7.552 3.936-11.264-76.32-41.28-168.224-82.496-185.92-82.496h-0.128c-30.72 0-293.696 124.992-293.12 158.272C96 64.64 299.968 673.728 299.968 673.728L132.48 855.584S107.744 896 181.6 896h418.144zM736-18.272a27.52 27.52 0 0 1-27.424-27.456 27.52 27.52 0 0 1 27.424-27.424 27.52 27.52 0 0 1 27.424 27.424 27.52 27.52 0 0 1-27.424 27.456z m0 219.424a27.52 27.52 0 0 1-27.424-27.424V64a27.52 27.52 0 0 1 27.424-27.424 27.52 27.52 0 0 1 27.424 27.424v109.728a27.52 27.52 0 0 1-27.424 27.424zM522.176 663.136l207.04-299.52a43.2 43.2 0 0 0-1.472-48.64l-55.904-69.824-149.664 417.984z"  horiz-adv-x="1024" />

    
    <glyph glyph-name="fanghu" unicode="&#59222;" d="M787.68 781.696C676.192 781.696 577.12 813.856 512 864c-65.12-50.144-164.16-82.304-275.68-82.304C173.76 781.696 115.072 791.872 64 809.6v-413.216C64 147.36 258.24-59.072 512-96c253.76 36.928 448 243.232 448 492.384V809.6c-51.072-17.728-109.76-27.904-172.32-27.904zM896 372.064c0-6.72-0.608-13.44-0.96-20.128H527.52V-64C323.328-27.52 169.568 147.616 160 351.936h367.52V768c75.296-44.512 171.328-69.44 271.584-69.44 32.64 0 65.12 2.656 96.896 7.904v-334.4z"  horiz-adv-x="1024" />

    
    <glyph glyph-name="yichang" unicode="&#59223;" d="M512 896c282.784 0 512-229.216 512-512s-229.216-512-512-512S0 101.216 0 384 229.216 896 512 896z m0-32C246.912 864 32 649.088 32 384c0-265.088 214.912-480 480-480 265.088 0 480 214.912 480 480 0 265.088-214.912 480-480 480z m7.2-594.656c19.296 0 36.096-7.104 50.144-21.056 14.048-14.016 21.056-30.752 21.056-50.144a66.24 66.24 0 0 0-21.056-49.632c-13.216-13.344-31.36-20.768-50.144-20.48-19.392 0-36.16 6.848-50.144 20.48a66.944 66.944 0 0 0-21.056 49.6c0 19.424 6.976 36.064 21.056 50.176 13.12 13.632 31.232 21.216 50.144 21.056zM519.232 640c20.8 0 37.76-7.104 51.136-21.408 13.376-14.272 20-32.128 20-53.568 0-18.4-27.84-154.24-37.12-253.088h-66.88c-8.128 98.752-38.272 234.56-38.272 253.12 0.096 21.12 6.72 38.912 20.032 53.248v0.032c13.312 14.4 30.4 21.664 51.104 21.664z"  horiz-adv-x="1024" />

    
    <glyph glyph-name="jianyan-s" unicode="&#59224;" d="M723.136 896c12.384 0 25.376-12.992 25.376-25.376s-12.992-25.376-25.376-25.376h-65.92v-236.832l262.24-461.056c34.464-59.104 36.608-137.376 5.44-199.616-22.24-44.16-57.216-71.072-98.496-75.744H197.312c-41.28 4.672-76.256 31.68-98.464 75.872-31.2 62.112-29.152 140.384 5.312 199.488l259.2 455.616V845.248h-65.92c-12.384 0-25.376 12.992-25.376 25.376S285.056 896 297.44 896z m-300.032-457.664a23.168 23.168 0 0 1-20.48-11.744L238.4 158.88a28.448 28.448 0 0 1-3.904-19.968c1.28-6.56 5.152-12 11.2-15.648l0.544-0.384 0.352-0.384c1.536-1.504 7.36-1.504 11.616-1.504 7.584 0 18.176 5.312 23.488 10.24l163.872 267.136c7.968 13.12 4.928 28.16-7.328 35.584a29.568 29.568 0 0 1-15.136 4.416z m185.632 192.832h-195.744v-57.568h195.744v57.6z"  horiz-adv-x="1024" />

    
    <glyph glyph-name="jiancha-s" unicode="&#59225;" d="M924.544 763.168l9.536-9.28 3.136-3.2c113.92-118.656 115.456-307.808 5.984-428.512l-9.12-9.632L579.2-48.544a94.176 94.176 0 0 0-129.76-4.544l-6.048 5.824L86.88 315.744c-116.992 121.856-115.616 317.952 2.88 438.144 116.064 117.376 301.184 121.6 422.144 9.472a301.76 301.76 0 0 0 412.64-0.192z m-493.92-140.8l-96.416-163.04H230.4a25.6 25.6 0 1 1 0-51.2h112.576c12.672 0 24.384 6.72 30.848 17.6l81.824 138.4 65.088-260.416a35.84 35.84 0 0 1 67.936-4.928l44.96 109.344h187.2a25.6 25.6 0 1 1 0 51.2H623.36a35.84 35.84 0 0 1-33.152-22.208l-31.136-75.648-62.816 251.36a35.84 35.84 0 0 1-65.6 9.568z"  horiz-adv-x="1024" />

    
    <glyph glyph-name="dengji" unicode="&#59213;" d="M875.456 716.288H567.04a145.376 145.376 0 0 0-96.32 37.184l-12.8 11.328a199.616 199.616 0 0 1-132.672 51.2H150.08C68.16 816 1.024 746.464 0.512 659.68v-374.048H0v-176.8C0 22.08 66.592-48 148.544-48h726.4c82.464 0 149.056 70.08 149.056 156.832V559.456c0.512 86.752-66.08 156.832-148.544 156.832z m-147.52-151.456c61.952 0 112.672-52.8 112.672-118.592 0-65.216-50.208-118.56-112.704-118.56-61.984 0-112.672 52.8-112.672 118.56 0.512 65.216 50.688 118.592 112.672 118.592z m-333.504-406.4H131.648c-15.872 0-29.184 13.472-29.184 30.72 0 17.28 12.8 30.72 29.184 30.72h262.784c15.872 0 29.216-13.44 29.216-30.72 0-17.248-12.8-30.72-29.216-30.72z m32.8 140.16H132.16c-15.872 0-29.184 13.44-29.184 30.72 0 17.216 12.8 30.72 29.184 30.72h295.04c15.904 0 29.216-13.504 29.216-30.72 0-17.28-13.312-30.72-29.184-30.72z m82.976 171.392c0-16.736-12.8-30.72-29.216-30.72H132.16c-15.872 0-29.184 13.44-29.184 30.72 0 16.704 12.8 30.72 29.184 30.72h349.344c15.904-0.544 28.704-14.016 28.704-30.72z m397.504-256.032c-44.064-53.888-109.632-88.384-182.368-88.384-70.176 0-132.672 31.776-176.736 81.92a15.552 15.552 0 0 0-2.56 16.704c5.664 14.016 12.8 27.488 22.048 35.04 23.552 18.88 89.12 50.656 94.752 53.344l64.032-67.904 63.52 65.216 3.584 2.688s70.72-33.408 95.296-53.344c8.704-7.04 15.36-17.28 20.48-28.032a16.32 16.32 0 0 0-2.048-17.28z"  horiz-adv-x="1024" />

    
    <glyph glyph-name="bianzu" unicode="&#59214;" d="M9.982908-70.614277l35.196151 35.100161a116.147296 116.147296 0 0 0 20.317777 136.881029l22.077586 21.981596a100.884966 100.884966 0 0 0 8.255097 133.425406L547.236146 707.508616a101.428906 101.428906 0 0 0 143.120346 0l49.594576-49.466589 77.463527 77.335541-103.444685 103.188714a33.660318 33.660318 0 0 0 47.674785 47.546799l252.420392-252.004437a33.596325 33.596325 0 0 0-23.86939-57.369725c-8.95902 0-17.502086 3.519615-23.869389 9.822926l-101.364913 101.236927-77.495524-77.303545 47.642789-47.514803a100.948959 100.948959 0 0 0 0-142.800381L383.574047-30.458669a101.460903 101.460903 0 0 0-131.505617-9.918915l-22.301561-22.269564a117.171184 117.171184 0 0 0-137.168997-20.285781l-35.132157-35.132158c-13.246551-13.118565-34.55622-13.118565-47.802772 0a33.564329 33.564329 0 0 0 0.319965 47.418814z m591.99925 353.017389l124.306404 124.082429 61.337291 61.241301a33.596325 33.596325 0 0 1 0 47.5468l-144.944146 144.560189a33.980283 33.980283 0 0 1-47.706782 0l-102.644774-102.484791 109.620011-274.945928z"  horiz-adv-x="1024" />

    
    <glyph glyph-name="suifang" unicode="&#59215;" d="M260.783103 734.270324v-99.181403c0-30.586265 24.827345-55.509592 55.349622-55.509592h392.406424c30.522277 0 55.349622 24.891333 55.349622 55.509592v99.181403h94.702243c37.049053 0 67.187402-30.266325 67.187403-67.379366v-727.319628a67.347372 67.347372 0 0 0-67.187403-67.379366H163.265388C126.216334-127.808036 96.077985-97.573705 96.077985-60.42867V666.890958C96.077985 704.035993 126.216334 734.23833 163.265388 734.23833l97.517715 0.031994z m476.422671-612.045241H284.650628v-53.717928h452.555146v53.749922z m0 171.295882H284.650628v-53.717928h452.555146V293.552959z m0 171.327876H284.650628v-53.749922h452.555146v53.749922zM512.351934 896a77.041555 77.041555 0 0 0 76.529651-83.824283l-2.495532-29.210523H697.565207c7.03868 0 12.7976-5.726926 12.7976-12.7976V646.126851a12.7976 12.7976 0 0 0-12.7976-12.7976H327.170656a12.7976 12.7976 0 0 0-12.797601 12.7976V770.167594c0 7.070674 5.726926 12.7976 12.797601 12.7976h111.147159l-2.527526 29.210523A77.105543 77.105543 0 0 0 512.351934 896z"  horiz-adv-x="1024" />

    
    <glyph glyph-name="bianzu1" unicode="&#59216;" d="M744.257082 896a126.676415 126.676415 0 0 0 126.86835-127.092272v-13.755268l-10.268467-10.300456L428.749637 308.618096c-3.422822-3.454811-10.268467-13.755267-10.268467-20.632901l-44.592658-216.405543c-3.422822-10.300456 0-24.023734 6.845645-34.356179 10.300456-10.300456 20.600912-17.17809 34.32419-17.17809h6.845645l216.053664 44.656635c10.268467 0 20.568923 3.454811 23.991745 10.332445l205.753208 206.105087v-281.695079c0-68.68037-54.861124-127.092272-126.868349-127.092272H126.965469A126.676415 126.676415 0 0 0 0.09712-0.555529V768.907728C0.09712 837.588097 54.958244 896 126.965469 896z m78.884859-267.747878c47.983491 48.079458 116.599882 61.802736 164.583373 13.755267v-6.909622c48.01548-48.079458 48.01548-109.914183 0-158.02563l-353.222469-353.798271c-6.845645-3.422822-10.268467-6.845645-17.146101-6.845645l-147.469261-34.356179s-23.991745-6.877634-30.83739 0c-6.845645 10.300456-10.300456 17.17809-6.845645 27.478546l30.83739 144.270362c0 6.877634 3.454811 13.755267 6.877634 17.178089z m-195.452752 89.121337c-10.332445 13.755267-27.478546 13.755267-41.169835 3.422822l-198.907563-199.227453L305.272121 604.004465c-13.723278 13.755267-30.869379 13.755267-44.592658 0l-109.722248-109.914183c-13.723278-13.755267-13.723278-30.901368 0-44.656635 13.723278-13.755267 30.869379-13.755267 44.592657 0l89.153326 85.890448 78.852869-82.435637c6.877634-6.877634 17.146101-10.300456 23.991746-10.300456 10.332445 0 17.17809 3.422822 24.023734 10.300456l219.476486 223.283177c10.300456 10.300456 6.877634 30.901368-3.422822 41.201824z"  horiz-adv-x="1024" />

    
    <glyph glyph-name="biyan" unicode="&#59201;" d="M1016.041244 603.932444c11.377778-10.638222 11.946667-28.501333 1.308445-39.879111a1231.644444 1231.644444 0 0 0-133.290667-124.131555l105.756445-105.699556a28.444444 28.444444 0 1 0-40.220445-40.220444l-111.672889 111.559111c-58.368-40.675556-116.736-70.542222-174.933333-89.6l44.373333-145.123556a28.444444 28.444444 0 1 0-54.442666-16.611555l-44.942223 147.000889c-32.426667-6.826667-64.853333-10.24-97.28-10.24-31.004444 0-62.008889 3.128889-93.013333 9.386666l-44.657778-146.204444a28.444444 28.444444 0 0 0-54.442666 16.668444l44.032 143.928889c-57.457778 18.375111-114.744889 47.445333-171.918223 87.04l-107.861333-107.804444a28.444444 28.444444 0 1 0-40.220444 40.220444l101.944889 101.831111A1191.822222 1191.822222 0 0 0 8.425244 564.280889a28.216889 28.216889 0 1 0 41.528889 38.172444c156.842667-170.666667 310.385778-254.919111 460.8-254.919111 150.414222 0 305.550222 84.309333 465.351111 255.146667 10.695111 11.377778 28.558222 11.946667 39.936 1.308444z"  horiz-adv-x="1024" />

    
    <glyph glyph-name="yanjing" unicode="&#59202;" d="M524.629333 725.333333c145.294222 0 272.896-70.656 382.293334-190.293333 44.373333-48.526222 83.626667-102.4 117.077333-160.540444a1073.834667 1073.834667 0 0 0-128.512-158.151112c-115.2-116.622222-240.526222-185.571556-370.972444-185.571555-131.072 0-262.257778 69.461333-386.275556 186.88A1187.726222 1187.726222 0 0 0 0 374.385778 1007.047111 1007.047111 0 0 0 126.748444 533.617778C245.077333 654.051556 378.652444 725.333333 524.629333 725.333333z m0-56.888889C397.937778 668.444444 276.309333 608.199111 162.019556 491.918222a943.786667 943.786667 0 0 1-88.462223-104.675555l-7.509333-10.581334 15.36-19.057777c21.333333-25.6 43.690667-50.232889 67.015111-73.728l23.608889-23.096889C292.408889 146.773333 411.875556 87.608889 524.515556 87.608889c111.502222 0 224.881778 58.140444 335.872 170.439111A1010.631111 1010.631111 0 0 1 950.044444 362.666667l10.24 14.108444-8.305777 13.084445a849.009778 849.009778 0 0 1-64.056889 85.048888l-17.521778 19.797334C765.553778 609.336889 650.069333 668.444444 524.572444 668.444444zM522.922667 566.044444a192.967111 192.967111 0 1 1 0-385.877333 192.967111 192.967111 0 0 1 0 385.877333z m0-56.888888a136.078222 136.078222 0 1 0 0-272.099556 136.078222 136.078222 0 0 0 0 272.099556z"  horiz-adv-x="1024" />

    
    <glyph glyph-name="shaixuan" unicode="&#59200;" d="M545.4848-76.8a90.368 90.368 0 0 0-43.264 10.752l-119.0912 65.792a90.0096 90.0096 0 0 0-46.8992 79.1552V456.0384a17.9712 17.9712 0 0 1-7.2192 14.336l-274.9952 219.648-3.584 3.584a88.064 88.064 0 0 0-17.152 97.28A88.4224 88.4224 0 0 0 115.3536 844.8h741.2736a89.6 89.6 0 0 0 82.944-53.9136c14.3872-33.3312 8.0896-70.1952-16.2304-97.28l-3.6352-3.584-277.76-222.3104a17.9712 17.9712 0 0 1-6.3488-14.4384v-440.064c0-49.7152-40.2944-90.0096-90.112-90.0096zM100.9664 744.0896L374.272 526.2336c21.7088-16.896 34.304-42.8032 34.2528-70.144v-377.1904a18.0224 18.0224 0 0 1 9.0624-16.1792l119.04-64.8192a18.0736 18.0736 0 0 1 27.0336 16.1792V453.2736a89.9584 89.9584 0 0 0 33.3824 70.2976l274.176 220.5184a17.9712 17.9712 0 0 1-14.4896 28.7744H115.3536a18.0736 18.0736 0 0 1-14.4384-28.7744h0.0512zM930.304 312.6784h-201.728a35.7376 35.7376 0 1 0 0 71.2704h201.728a35.7376 35.7376 0 1 0 0-71.2704z m0-133.7344h-201.728a35.7376 35.7376 0 1 0 0 71.2704h201.728a35.7376 35.7376 0 1 0 0-71.2704z m0-132.864h-201.728a35.6864 35.6864 0 1 0 0 71.3728h201.728a35.6864 35.6864 0 1 0 0-71.3728z"  horiz-adv-x="1024" />

    
    <glyph glyph-name="shenpi" unicode="&#59199;" d="M692.992 820.992a256 256 0 0 0-15.2576-376.1152L788.5824 179.2H819.2a153.6 153.6 0 0 0 0-307.2H204.8a153.6 153.6 0 0 0 0 307.2h30.5664l110.848 265.728a256 256 0 0 0 346.7776 376.1152zM819.2 117.76H204.8a92.16 92.16 0 0 1-7.5776-184.0128L204.8-66.56h614.4a92.16 92.16 0 0 1 7.5776 184.0128L819.2 117.76zM512 384a254.976 254.976 0 0 0-113.5104 26.4704L302.08 179.5584h419.7888l-96.3584 231.0144A255.5904 255.5904 0 0 0 512 384zM437.5552 819.712a194.56 194.56 0 1 1 148.8896-359.424 194.56 194.56 0 0 1-148.8896 359.424z"  horiz-adv-x="1024" />

    
    <glyph glyph-name="cha" unicode="&#58889;" d="M521.088 465.408L883.2 827.52a64 64 0 1 0 90.496-90.496L611.648 374.912l361.984-362.048a64 64 0 0 0-90.496-90.496L521.088 284.416l-361.984-362.048a64 64 0 0 0-90.56 90.496l362.048 362.048-362.048 362.048a64 64 0 0 0 90.56 90.496l361.984-362.048z"  horiz-adv-x="1024" />

    
    <glyph glyph-name="quyu" unicode="&#59158;" d="M69.034667 769.706667v-276.224h276.224V769.706667H69.034667z m0 69.077333h276.224c38.144 0 69.077333-30.933333 69.077333-69.077333v-276.224c0-38.144-30.933333-69.034667-69.077333-69.034667H69.034667A69.034667 69.034667 0 0 0 0 493.482667V769.706667C0 807.850667 30.933333 838.826667 69.034667 838.826667z m690.56-11.904l-195.285334-195.285333 195.285334-195.285334 195.285333 195.285334-195.285333 195.285333zM808.405333 875.776l195.413334-195.370667a69.034667 69.034667 0 0 0 0-97.621333l-195.413334-195.370667a69.034667 69.034667 0 0 0-97.621333 0L515.413333 582.826667a69.034667 69.034667 0 0 0 0 97.621333L710.826667 875.818667a69.034667 69.034667 0 0 0 97.621333 0zM69.034667 217.258667v-276.224h276.224v276.224H69.034667z m0 69.077333h276.224c38.144 0 69.077333-30.933333 69.077333-69.077333v-276.224c0-38.101333-30.933333-69.034667-69.077333-69.034667H69.034667A69.034667 69.034667 0 0 0 0-58.965333v276.224c0 38.144 30.933333 69.077333 69.034667 69.077333z m552.448-69.077333v-276.224h276.224v276.224h-276.224z m0 69.077333h276.224c38.144 0 69.077333-30.933333 69.077333-69.077333v-276.224c0-38.101333-30.933333-69.034667-69.077333-69.034667h-276.224a69.034667 69.034667 0 0 0-69.034667 69.034667v276.224c0 38.144 30.890667 69.077333 69.034667 69.077333z"  horiz-adv-x="1024" />

    
    <glyph glyph-name="feiyongjiankong" unicode="&#59159;" d="M537.6-128c-282.7776 0-512 229.2224-512 512s229.2224 512 512 512 512-229.2224 512-512-229.2224-512-512-512z m0 61.44a450.56 450.56 0 1 1 0 901.12 450.56 450.56 0 0 1 0-901.12z m40.3456 335.1552h134.3488c18.0224 0 27.0336-9.0112 27.0336-27.0336 0-17.4592-9.0112-26.2144-27.0336-26.2144h-134.3488v-113.8688c0-13.6192-1.792-22.784-5.3248-27.4432-3.584-4.608-11.6224-6.9632-24.1664-6.9632-10.9056 0-18.688 2.3552-23.3472 6.9632-4.608 4.608-6.9632 13.824-6.9632 27.4432v113.8688H385.4336c-18.0224 0-27.0336 8.704-27.0336 26.2144 0 18.0224 8.448 27.0336 25.3952 27.0336h134.3488v79.4624H385.4336c-18.0224 0-27.0336 8.704-27.0336 26.2144 0 18.0224 8.448 27.0336 25.3952 27.0336h98.304c-19.6608 32.256-39.168 64.2048-58.5728 95.8464L364.9536 592.9984c-9.8304 18.0224-7.936 31.6928 5.7344 40.96 7.1168 4.9152 13.6704 6.8608 19.6608 5.7344 5.9904-1.0752 12.032-6.5536 18.0224-16.384l133.5296-222.0032h15.5648l64.7168 109.7728 64.7168 109.7728c7.68 12.5952 14.4896 18.7392 20.48 18.432 5.9904-0.256 12.544-2.56 19.6608-6.9632 7.68-4.9152 11.776-10.3424 12.288-16.384 0.512-5.9904-2.2016-13.9264-8.192-23.7568l-114.688-190.8736h95.8464c18.0224 0 27.0336-9.0112 27.0336-27.0336 0-17.4592-9.0112-26.2144-27.0336-26.2144h-134.3488v-79.4624z"  horiz-adv-x="1075" />

    
    <glyph glyph-name="mic" unicode="&#60287;" d="M841.142856 451.04755834l0-73.14285q0-126.317702-84.260563-219.721122t-208.310837-107.154275l0-75.410278 146.2857 0q14.847999 0 25.746283-10.825142t10.825142-25.746283-10.825142-25.746283-25.746283-10.825142l-365.71425 0q-14.847999 0-25.746283 10.825142t-10.825142 25.746283 10.825142 25.746283 25.746283 10.825142l146.2857 0 0 75.410278q-123.977131 13.677713-208.310837 107.154275t-84.260563 219.721122l0 73.14285q0 14.847999 10.825142 25.746283t25.746283 10.825142 25.746283-10.825142 10.825142-25.746283l0-73.14285q0-105.691418 75.117707-180.882268t180.882268-75.117707 180.882268 75.117707 75.117707 180.882268l0 73.14285q0 14.847999 10.825142 25.746283t25.746283 10.825142 25.746283-10.825142 10.825142-25.746283zM694.857156 670.47610934l0-292.5714q0-75.410278-53.686852-129.170273t-129.170273-53.686852-129.170273 53.686852-53.686852 129.170273l0 292.5714q0 75.410278 53.686852 129.170273t129.170273 53.686852 129.170273-53.686852 53.686852-129.170273z"  horiz-adv-x="1024" />

    
    <glyph glyph-name="success" unicode="&#58898;" d="M512-128a512 512 0 1 0 512 512 512 512 0 0 0-512-512z m258.304 674.816a50.112 50.112 0 0 1-71.104-1.664L469.376 303.10400000000004 317.12 446.016a50.112 50.112 0 0 1-71.104-2.432 50.752 50.752 0 0 1 2.432-71.488l188.672-177.088a50.112 50.112 0 0 1 70.4 2.048l264.128 278.144a50.752 50.752 0 0 1-1.344 71.616z"  horiz-adv-x="1024" />

    
    <glyph glyph-name="nan" unicode="&#58917;" d="M1021.725 831.647c0 35.39-28.69 64.080-64.080 64.080-4.697 0-9.248-0.582-13.653-1.53h-341.151c-12.78 1.857-26.068-1.42-35.862-11.25-16.53-16.493-16.53-43.253 0-59.783 9.175-9.175 21.482-12.743 33.46-11.687v-1.857h276.781l-179.75-179.714c-166.097 136.060-411.53 126.63-566.559-28.363-165.115-165.115-165.115-432.756 0-597.87s432.865-165.115 597.98 0c155.029 155.029 164.459 400.425 28.363 566.486l179.714 179.714v-276.743c-0.255-11.141 3.714-22.319 12.197-30.802 16.53-16.53 43.291-16.53 59.82 0 8.447 8.483 12.452 19.661 12.197 30.766h0.364v356.443c0 0.692 0.182 1.383 0.182 2.112zM669.031 63.42c-132.092-132.092-346.285-132.092-478.34 0-132.092 132.092-132.092 346.249 0 478.304 132.018 132.018 346.030 132.055 478.158 0.146l0.364-0.327c131.909-132.055 131.837-346.102-0.182-478.122z"  horiz-adv-x="1024" />

    
    <glyph glyph-name="shangjiantou1" unicode="&#59193;" d="M253.651376 240.553282c-6.503881 0-13.007763 2.16796-18.066337 7.226535-10.117149 10.117149-10.117149 26.015526 0 35.410021l231.971771 231.971771c10.117149 10.117149 23.847565 15.898377 39.023289 15.898377s28.183486-5.781228 39.023288-15.898377l231.249118-231.249118c10.117149-10.117149 10.117149-26.015526 0-35.410021-10.117149-10.117149-26.015526-10.117149-35.410021 0l-231.249118 231.249118c-2.16796 2.16796-4.335921 2.16796-5.781228 0l-232.694425-231.249118c-5.058574-5.058574-11.562456-7.949188-18.066337-7.949188z"  horiz-adv-x="1024" />

    
    <glyph glyph-name="nv" unicode="&#58918;" d="M894.293 766.293c-160.426 160.427-421.546 160.427-581.973 0-150.187-150.186-160.427-390.826-27.307-551.253l-59.733-59.733L80.213 300.37300000000005c-15.36 15.36-42.666 15.36-58.026 0s-15.36-42.666 0-58.026L167.253 97.27999999999997l-87.04-87.04c-15.36-15.36-15.36-42.667 0-58.027s42.667-15.36 58.027 0l87.04 87.04 145.067-145.066c15.36-15.36 42.666-15.36 58.026 0s15.36 42.666 0 58.026L283.307 97.27999999999997l59.733 59.733c162.133-133.12 401.067-122.88 551.253 27.307 162.134 160.427 162.134 421.547 0 581.973z m-61.44-520.533c-126.293-126.293-331.093-126.293-457.386 0-126.294 126.293-126.294 331.093 0 457.387 126.293 126.293 331.093 126.293 457.386 0 126.294-124.587 126.294-331.094 0-457.387z"  horiz-adv-x="1024" />

    
    <glyph glyph-name="jiajian-1" unicode="&#59063;" d="M123.904 425.984h776.192c23.04 0 41.984-18.944 41.984-41.984 0-23.04-18.944-41.984-41.984-41.984H123.904c-23.04 0-41.984 18.944-41.984 41.984 0 23.04 18.944 41.984 41.984 41.984zM470.016-4.096V772.096c0 23.04 18.944 41.984 41.984 41.984 23.04 0 41.984-18.944 41.984-41.984v-776.192c0-23.04-18.944-41.984-41.984-41.984-23.04 0-41.984 18.944-41.984 41.984z"  horiz-adv-x="1024" />

    
    <glyph glyph-name="hospital1" unicode="&#59507;" d="M997.945 450.045a92.977 92.977 0 0 0 0.002-131.59L873.946 194.51a93.001 93.001 0 0 0-131.608-0.003L634.923 301.91h132.09V466.59H634.926l9.116 9.118 98.292 98.322a93.001 93.001 0 0 0 131.609 0.002L996.34 451.607l1.604-1.562z m-970.66 0l1.604 1.562 122.397 122.424a93 93 0 0 0 131.61-0.002l98.291-98.322 9.116-9.119H258.218V301.91h132.09L282.891 194.507a93.001 93.001 0 0 0-131.608 0.003L27.283 318.455a92.975 92.975 0 0 0 0.002 131.59zM581.597-99.88a92.977 92.977 0 0 0-131.59-0.002L326.062 24.12a93.001 93.001 0 0 0-0.003 131.608l107.402 107.415v-132.09h164.68V263.14l9.118-9.116 98.322-98.292a93.001 93.001 0 0 0 0.002-131.61L583.16-98.275l-1.562-1.604z m0 968.299l1.562-1.604 122.424-122.397a93 93 0 0 0-0.002-131.61l-98.322-98.291-9.119-9.117V637.486H433.461v-132.09L326.06 612.812a93.001 93.001 0 0 0 0.003 131.608L450.007 868.422a92.975 92.975 0 0 0 131.59-0.002z"  horiz-adv-x="1026" />

    
    <glyph glyph-name="jianshao" unicode="&#59648;" d="M843.860302 715.945209A465.960919 465.960919 0 0 1 512.000213 853.33136C386.560684 853.33136 268.886458 804.606209 180.182791 715.945209A465.960919 465.960919 0 0 1 42.66864 383.999787c0-125.482196 48.767817-243.199088 137.471484-331.945422A466.046252 466.046252 0 0 1 512.000213-85.331787a465.918253 465.918253 0 0 1 331.817423 137.386152A465.83292 465.83292 0 0 1 981.331787 384.042453c0 125.482196-48.725151 243.199088-137.471485 331.902756z m30.122554 30.16522A508.200761 508.200761 0 0 0 1023.998293 384.042453c0-136.831487-53.2478-265.428338-150.015437-362.153308A508.584759 508.584759 0 0 0 512.000213-127.998293a508.712759 508.712759 0 0 0-362.025309 149.887438A508.712759 508.712759 0 0 0 0.002133 383.999787c0 136.78882 53.290467 265.385671 150.015438 362.110642A508.712759 508.712759 0 0 0 512.04288 895.997867a508.584759 508.584759 0 0 0 361.939976-149.887438z m-331.518757-392.91586h219.47651a36.650529 36.650529 0 0 1 36.565197 36.693196 36.650529 36.650529 0 0 1-36.565197 36.778528H249.899863a36.693196 36.693196 0 0 1-36.565196-36.735862c0-20.266591 16.383939-36.735862 36.565196-36.735862h292.606903z"  horiz-adv-x="1024" />

    
    <glyph glyph-name="search" unicode="&#58974;" d="M979.84-35.62666666999996L818.02666667 126.18666667000002c60.69333333 75.30666667 97.06666667 171.2 97.06666666 275.52C915.2 644.26666667 718.50666667 840.96 475.94666667 840.96S36.69333333 644.26666667 36.69333333 401.70666667s196.69333333-439.25333333 439.25333334-439.25333334c113.70666667 0 217.28 43.2 295.36 114.13333334l160.42666666-160.42666667c6.61333333-6.61333333 15.36-10.02666667 24.10666667-10.02666667s17.49333333 3.30666667 24.10666667 10.02666667c13.22666667 13.33333333 13.22666667 34.88-0.10666667 48.21333333z m-359.57333333 95.46666667c-45.65333333-19.30666667-94.29333333-29.12-144.42666667-29.12s-98.66666667 9.81333333-144.42666667 29.12c-44.16 18.66666667-83.84 45.44-117.97333333 79.57333333-34.13333333 34.13333333-60.8 73.81333333-79.57333333 117.97333334-19.30666667 45.65333333-29.12 94.29333333-29.12 144.42666666s9.81333333 98.66666667 29.12 144.42666667c18.66666667 44.16 45.44 83.84 79.57333333 117.97333333 34.13333333 34.13333333 73.81333333 60.8 117.97333333 79.57333334 45.65333333 19.30666667 94.29333333 29.12 144.42666667 29.12s98.66666667-9.81333333 144.42666667-29.12c44.16-18.66666667 83.84-45.44 117.97333333-79.57333334 34.13333333-34.13333333 60.8-73.81333333 79.57333333-117.97333333 19.30666667-45.65333333 29.12-94.29333333 29.12-144.42666667s-9.81333333-98.66666667-29.12-144.42666666c-18.66666667-44.16-45.44-83.84-79.57333333-117.97333334-34.13333333-34.13333333-73.81333333-60.90666667-117.97333333-79.57333333z"  horiz-adv-x="1024" />

    
    <glyph glyph-name="renyuanfenxi" unicode="&#59160;" d="M736.158476 606.598095c0 119.271619-95.719619 216.259048-213.333333 216.259048-117.662476 0-213.333333-97.03619-213.333333-216.259048a216.990476 216.990476 0 0 1 81.92-169.984 360.69181 360.69181 0 0 1-224.158477-334.60419v-72.021334c0-19.992381 15.945143-36.08381 35.547429-36.083809h640c19.69981 0 35.59619 16.091429 35.59619 36.083809v72.021334a360.643048 360.643048 0 0 1-224.158476 334.60419 216.84419 216.84419 0 0 1 81.92 169.984z m-370.590476-0.097524c0 88.015238 70.607238 159.597714 157.500952 159.597715 86.79619 0 157.354667-71.582476 157.354667-159.597715 0-87.966476-70.558476-159.548952-157.403429-159.548952-86.79619 0-157.403429 71.582476-157.403428 159.548952z m458.605714-557.056H217.770667v39.838477c0 175.737905 136.045714 308.516571 303.299047 308.516571 167.15581 0 303.104-132.778667 303.104-308.516571v-39.838477zM275.602286 428.373333a25.112381 25.112381 0 0 0-19.894857-14.921143c-100.59581-25.6-169.691429-115.370667-169.691429-219.574857v-55.783619a25.6 25.6 0 0 0-25.453714-25.795047 25.6 25.6 0 0 0-25.453715 25.843809V193.828571c0 104.789333 57.051429 199.241143 147.456 246.735239l11.654096 6.095238-8.825905 9.849904a170.910476 170.910476 0 0 0-43.593143 114.005334c0 78.896762 52.760381 146.870857 128.341333 165.302857a25.84381 25.84381 0 0 0 11.897905-50.224762 117.613714 117.613714 0 0 1-89.331809-115.078095c0-46.665143 27.209143-89.039238 69.290666-108.105143a23.79581 23.79581 0 0 0 7.996953-5.558857c3.413333-3.998476 8.240762-12.288 8.240762-16.335238a44.470857 44.470857 0 0 0-2.633143-12.190477z m493.958095 18.724572l0.487619 1.072762 0.487619 0.975238 0.390095 0.877714a26.916571 26.916571 0 0 0 3.559619 5.900191l0.195048 0.195047 0.828952 0.828953a24.722286 24.722286 0 0 0 7.948191 5.510095 118.588952 118.588952 0 0 1 69.339428 108.153905 118.296381 118.296381 0 0 1-86.406095 114.346666 25.84381 25.84381 0 0 0 13.214476 49.785905c73.045333-19.846095 124.099048-87.381333 124.099048-164.132571 0-42.325333-15.652571-82.797714-43.593143-114.054096l-2.194286-9.703619 5.071238-6.290285c90.35581-47.445333 147.358476-141.897143 147.358477-246.735239v-55.734857a25.6 25.6 0 0 0-25.356191-25.795047 25.6 25.6 0 0 0-25.502476 25.843809V193.828571c0 104.20419-69.095619 193.974857-168.667429 219.37981a25.795048 25.795048 0 0 0-20.870095 14.969905 9.45981 9.45981 0 0 0-0.341333 1.852952v0.146286l-0.487619 2.925714-0.292572 1.170286-0.146285 0.438857-0.292572 1.511619a24.137143 24.137143 0 0 0 0.24381 5.656381c0.097524 2.096762 0.146286 2.438095 0.097524 3.169524l0.78019 1.950476z"  horiz-adv-x="1024" />

    
    <glyph glyph-name="zhuanzhengailan" unicode="&#59161;" d="M970.752 587.4176a510.72 510.72 0 0 0 39.5776-196.608 502.016 502.016 0 0 0-148.1216-357.0176 503.0912 503.0912 0 0 0-160.4096-107.8784 508.2112 508.2112 0 0 0-196.608-39.5776H154.2656c-39.5776 0-71.68 32.1024-71.68 71.0144V113.664A532.1728 532.1728 0 0 0 24.576 234.496c-16.384 51.2-24.576 103.7824-24.576 156.3136 0 66.9184 12.9536 133.12 38.912 195.2768A493.9776 493.9776 0 0 0 144.0256 744.448l2.048 2.048 1.3824 1.3824A506.4704 506.4704 0 0 0 505.1904 896a503.7056 503.7056 0 0 0 357.0176-148.1216 494.08 494.08 0 0 0 108.544-160.4608z m-21.8624-196.608a449.28 449.28 0 0 1-34.816 172.9024 433.5104 433.5104 0 0 1-95.488 140.8512A442.2656 442.2656 0 0 1 505.1904 834.56a445.0304 445.0304 0 0 1-314.2656-130.1504l-1.3824-1.3824-1.7408-1.6896a432.7936 432.7936 0 0 1-92.16-138.9568 444.416 444.416 0 0 1-34.2016-171.52c0-46.3872 7.2704-92.672 21.3504-136.6528a470.4768 470.4768 0 0 1 51.2-106.9056l10.0352-15.36v-174.592c0-5.0176 4.608-9.5744 10.24-9.5744h350.9248c59.4944 0 117.7088 11.776 172.8 34.816a441.6512 441.6512 0 0 1 140.8 94.6688 440.576 440.576 0 0 1 130.0992 313.5488zM654.848 518.5536l-103.5776 72.4992a26.9312 26.9312 0 0 0 30.8224 44.0832l161.536-113.152a26.624 26.624 0 0 0 11.1104-17.6128 26.88 26.88 0 0 0-23.6544-39.68l-448.1536 0.1024a26.88 26.88 0 0 0 0 53.76h371.9168z m-295.68-219.1872l103.5264-72.5504a26.88 26.88 0 1 0-30.8224-44.032L270.336 295.936a26.8288 26.8288 0 0 0-11.1104 17.5104 26.88 26.88 0 0 0 23.7056 39.68h448.1536a26.88 26.88 0 1 0 0-53.76H359.168z"  horiz-adv-x="1024" />

    
    <glyph glyph-name="jiancha" unicode="&#59168;" d="M924.5184 763.136l9.5744-9.216 3.072-3.2256c113.92-118.6816 115.5072-307.8144 6.0416-428.544l-9.1136-9.6256-354.9184-361.0624a94.208 94.208 0 0 0-129.7408-4.5568l-6.0416 5.8368-356.5056 363.008c-116.992 121.856-115.6096 317.952 2.8672 438.1184a301.9776 301.9776 0 0 0 422.144 9.472 301.7728 301.7728 0 0 0 412.672-0.2048z m-377.8048-37.376l-34.816-32.256-34.816 32.256a250.7776 250.7776 0 0 1-350.8736-7.8336C27.136 617.472 26.0608 453.0176 123.5456 351.4368l356.864-363.3664a42.9056 42.9056 0 0 1 62.0544-0.9216l355.2256 361.3696c99.1232 100.352 100.352 264.9088 2.816 366.4384l-2.816 2.9184a250.6752 250.6752 0 0 1-350.976 7.936z m-129.2288-101.888a35.84 35.84 0 0 0 65.6384-9.5744l62.8224-251.392 31.1296 75.6736a35.84 35.84 0 0 0 33.1264 22.2208h197.4784a25.6 25.6 0 0 0 0-51.2h-187.1872l-45.0048-109.3632a35.84 35.84 0 0 0-67.8912 4.9152L442.5216 565.6064 360.6528 427.2128a35.84 35.84 0 0 0-30.8224-17.6128H217.2416a25.6 25.6 0 1 0 0 51.2h103.8336z"  horiz-adv-x="1024" />

    
    <glyph glyph-name="yizhu" unicode="&#59169;" d="M830.5664 844.8C880.8448 844.8 921.6 804.0448 921.6 753.7664v-739.5328c0-50.2784-40.7552-91.0336-91.0336-91.0336H193.4336A91.0336 91.0336 0 0 0 102.4 14.2336V753.7664C102.4 804.0448 143.1552 844.8 193.4336 844.8h637.1328z m0-45.5168H193.4336a45.5168 45.5168 0 0 1-45.568-45.5168v-739.5328c0-25.1392 20.4288-45.568 45.568-45.568h637.1328c25.1392 0 45.568 20.4288 45.568 45.568V753.7664a45.5168 45.5168 0 0 1-45.568 45.568zM742.4 128a25.6 25.6 0 1 0 0-51.2h-460.8a25.6 25.6 0 1 0 0 51.2h460.8z m0 153.6a25.6 25.6 0 1 0 0-51.2h-460.8a25.6 25.6 0 1 0 0 51.2h460.8zM512 716.8a25.6 25.6 0 0 0 25.6-25.6v-102.4h102.4a25.6 25.6 0 1 0 0-51.2h-102.4v-102.4a25.6 25.6 0 1 0-51.2 0V537.6h-102.4a25.6 25.6 0 1 0 0 51.2h102.4V691.2a25.6 25.6 0 0 0 25.6 25.6z"  horiz-adv-x="1024" />

    
    <glyph glyph-name="jianyan1" unicode="&#59170;" d="M677.2224 844.8c11.008 0 22.5792-11.5712 22.5792-22.528 0-11.0592-11.5712-22.6304-22.528-22.6304h-58.6752v-210.6368l233.216-410.0096c30.6688-52.5824 32.5632-122.1632 4.864-177.5104-19.7632-39.3216-50.8928-63.232-87.552-67.3792H209.5104c-36.7104 4.096-67.7888 28.16-87.552 67.4816-27.7504 55.2448-25.9584 124.8256 4.7104 177.408L357.2224 584.192V799.6416H298.5984c-10.9568 0-22.528 11.5712-22.528 22.5792S287.6416 844.8 298.5984 844.8z m-97.4336-280.4736H398.7968l-233.984-405.248c-21.9136-38.2464-23.04-90.6752-2.9696-133.8368 7.5264-18.2784 25.7536-40.4992 52.48-43.2128h549.888c28.3136 2.816 42.7008 26.8288 51.2 41.216l0.9216 1.4336c20.3264 43.5712 19.2 96.1536-2.56 134.4L581.12 562.0736l-1.3312 2.2528zM410.368 437.76c4.5056 0 9.216-1.3312 13.5168-3.8912 10.8544-6.656 13.568-19.968 6.5024-31.6928l-145.7664-237.568c-4.7104-4.4032-14.1312-9.1136-20.8896-9.1136-3.7888 0-8.96 0-10.2912 1.3824l-0.3584 0.3072-4.096 3.072a20.0704 20.0704 0 0 0-6.3488 11.2128 25.2928 25.2928 0 0 0 3.4816 17.7152L392.192 427.3152a20.6336 20.6336 0 0 0 18.176 10.4448z m163.1232 361.8816H402.2784v-190.1568H573.44V799.6416z"  horiz-adv-x="1024" />

    
    <glyph glyph-name="bingcheng" unicode="&#59172;" d="M57.6 817.9712v-809.728a81.92 81.92 0 0 1 81.92-81.92h797.696a30.72 30.72 0 1 1 0 61.44H139.52a20.48 20.48 0 0 0-20.48 20.48V817.9712a30.72 30.72 0 0 1-61.44 0z m178.176-126.8736h552.96a30.72 30.72 0 1 0 0-61.44h-552.96a30.72 30.72 0 1 0 0 61.44z m276.6848-259.8912a30.72 30.72 0 0 1-30.72 30.72H235.776a30.72 30.72 0 0 1 0-61.44h245.9648a30.72 30.72 0 0 1 30.72 30.72z m-276.6848-197.888h476.16a30.72 30.72 0 1 0 0-61.44h-476.16a30.72 30.72 0 1 0 0 61.44z"  horiz-adv-x="1024" />

    
    <glyph glyph-name="xinxi" unicode="&#59173;" d="M686.0288 544.256H312.1152c-29.0816 0-52.736 23.6544-52.736 52.736V735.8464c0 29.0816 23.6544 52.736 52.736 52.736h63.7952A124.5184 124.5184 0 0 0 499.0976 896c62.7712 0 114.8928-46.7968 123.1872-107.4176h63.744c29.0816 0 52.736-23.6544 52.736-52.736V596.992c0-29.0816-23.6544-52.736-52.736-52.736zM312.1152 737.4848a1.6896 1.6896 0 0 1-1.6896-1.6896V596.992c0-0.9216 0.7168-1.6896 1.6896-1.6896H686.08a1.6896 1.6896 0 0 1 1.6896 1.6896V735.8464a1.6896 1.6896 0 0 1-1.6896 1.6896h-116.3776l2.3552 27.7504a73.3184 73.3184 0 1 1-146.2272 6.4512c0-2.048 0.1536-4.096 0.3584-6.4512l2.3552-27.7504H312.1152z m-29.9008-643.1744h432.4352v-51.0464H282.2144v51.0464z m0 162.7648h432.4352v-51.0464H282.2144v51.0464z m0 162.816h432.4352v-51.0976H282.2144v51.0976zM829.0304-128H166.4C131.072-128 102.4-99.2768 102.4-64V627.2C102.4 662.528 131.1232 691.2 166.4 691.2h90.7776v44.0832c0 29.184 23.7568 52.8896 52.9408 52.8896h64A124.928 124.928 0 0 0 497.7152 896a124.928 124.928 0 0 0 123.648-107.8272h64c29.184 0 52.8896-23.7056 52.8896-52.8896v-44.032h90.7776c35.328 0 64-28.7744 64-64v-691.2c0-35.328-28.672-64.0512-64-64.0512zM166.4 640a12.8 12.8 0 0 1-12.8-12.8v-691.2c0-7.0144 5.7344-12.7488 12.8-12.7488h662.5792a12.8 12.8 0 0 1 12.8 12.8V627.2a12.8 12.8 0 0 1-12.8 12.7488h-142.0288V735.2832a1.6896 1.6896 0 0 1-1.6384 1.6896h-116.8384l2.4064 27.8528A73.5744 73.5744 0 0 1 497.7152 844.8a73.5744 73.5744 0 0 1-73.216-79.9744l2.4064-27.8528h-116.736a1.6896 1.6896 0 0 1-1.7408-1.6896V640H166.4z"  horiz-adv-x="1024" />

    
    <glyph glyph-name="queshengtu" unicode="&#59194;" d="M1293.473684 316.631579a80.842105 80.842105 0 0 0 80.842105-80.842105v-148.210527a80.842105 80.842105 0 1 0-161.68421 0V316.631579h80.842105z m-53.894737-26.947368v-202.105264a53.894737 53.894737 0 1 1 107.789474 0V235.789474a53.894737 53.894737 0 0 1-53.894737 53.894737h-53.894737zM1374.315789 896a67.368421 67.368421 0 1 0 0-134.736842 67.368421 67.368421 0 0 0 0 134.736842z m0-26.947368a40.421053 40.421053 0 1 1 0-80.842106 40.421053 40.421053 0 0 1 0 80.842106zM390.736842 437.894737a67.368421 67.368421 0 1 0 0-134.736842 67.368421 67.368421 0 0 0 0 134.736842z m0-26.947369a40.421053 40.421053 0 1 1 0-80.842105 40.421053 40.421053 0 0 1 0 80.842105zM471.578947 801.684211a13.473684 13.473684 0 0 0 13.473685-13.473685v-40.421052h40.421052a13.473684 13.473684 0 0 0 0-26.947369h-40.421052v-40.421052a13.473684 13.473684 0 0 0-26.947369 0v40.421052h-40.421052a13.473684 13.473684 0 0 0 0 26.947369h40.421052V788.210526a13.473684 13.473684 0 0 0 13.473684 13.473685zM1637.537684 256.485053a13.473684 13.473684 0 0 0 0-19.065264l-28.591158-28.56421 28.591158-28.591158a13.473684 13.473684 0 1 0-19.065263-19.065263L1589.894737 189.790316l-28.564211-28.591158a13.473684 13.473684 0 1 0-19.065263 19.065263L1570.829474 208.842105l-28.564211 28.564211a13.473684 13.473684 0 1 0 19.05179 19.065263l28.577684-28.564211 28.577684 28.564211a13.473684 13.473684 0 0 0 19.065263 0zM1037.473684 276.210526a13.473684 13.473684 0 0 0 0-26.947368H808.421053a13.473684 13.473684 0 0 0 0 26.947368h229.052631z m67.368421 134.736842a13.473684 13.473684 0 0 0 0-26.947368H808.421053a13.473684 13.473684 0 0 0 0 26.947368h296.421052z m0 134.736843a13.473684 13.473684 0 0 0 0-26.947369H808.421053a13.473684 13.473684 0 0 0 0 26.947369h296.421052zM700.631579-101.052632a13.473684 13.473684 0 0 0 0-26.947368H350.315789a13.473684 13.473684 0 0 0 0 26.947368h350.31579z m175.157895 0a13.473684 13.473684 0 0 0 0-26.947368h-107.789474a13.473684 13.473684 0 0 0 0 26.947368h107.789474z m875.789473 0a13.473684 13.473684 0 1 0 0-26.947368H970.105263a13.473684 13.473684 0 0 0 0 26.947368h781.473684zM1172.210526 734.315789a67.368421 67.368421 0 0 0 67.368421-67.368421v-554.172631h-26.947368V666.947368a40.421053 40.421053 0 0 1-40.421053 40.421053H741.052632a40.421053 40.421053 0 0 1-40.421053-40.421053v-592.842105a40.421053 40.421053 0 0 1 40.421053-40.421052h862.315789a13.473684 13.473684 0 1 0 0-26.947369H13.473684a13.473684 13.473684 0 0 0 0 26.947369l673.684211-0.013474A67.072 67.072 0 0 0 673.684211 74.105263V666.947368a67.368421 67.368421 0 0 0 67.368421 67.368421z m835.368421-700.631578a13.473684 13.473684 0 1 0 0-26.947369h-296.421052a13.473684 13.473684 0 1 0 0 26.947369h296.421052z"  horiz-adv-x="2021" />

    
    <glyph glyph-name="dingwei1" unicode="&#59195;" d="M938.583475 471.59338C938.583475 717.67072 759.059645 896 511.958404 896 276.71734 896 85.333333 705.639893 85.333333 471.59338c0-172.783154 235.923664-404.696542 362.716635-561.950544l9.385752-11.518876a70.137162 70.137162 0 0 1 109.216018 0l9.471077 11.518876C702.659811 66.896838 938.583475 298.810226 938.583475 471.59338zM511.958404 298.724901c-94.198816 0-170.650028 76.451213-170.650028 170.650028s76.451213 170.650028 170.650028 170.650029 170.650028-76.451213 170.650028-170.650029-76.451213-170.650028-170.650028-170.650028z"  horiz-adv-x="1024" />

    
    <glyph glyph-name="jiayi" unicode="&#59196;" d="M999.44448 491.392L571.92448 870.528a85.312 85.312 0 0 1-121.6 0L28.05248 501.952c-33.536-33.92-38.976-83.648-5.376-117.632L133.14048 296.192v-337.728c0-46.72 48.32-86.464 94.528-86.464h565.056c46.208 0 81.28 39.68 81.28 86.464V284.48l124.16 89.344c33.6 33.92 34.752 83.648 1.216 117.568M672.66048 160.64c-40.128-67.648-140.416-151.168-144.64-154.752A24.96 24.96 0 0 0 512.02048 0a25.024 25.024 0 0 0-16.064 5.952c-4.288 3.584-104.64 87.296-144.64 154.752C337.30048 184.128 320.02048 213.376 320.02048 255.488 320.02048 326.4 369.30048 384 429.78048 384c31.68 0 61.376-15.744 82.24-43.392C532.88448 368.256 562.58048 384 594.19648 384 654.74048 384 704.02048 326.4 704.02048 255.488c0-42.112-17.344-71.36-31.296-94.784"  horiz-adv-x="1024" />

    
    <glyph glyph-name="huanzhe" unicode="&#59197;" d="M889.263158 249.263158a188.631579 188.631579 0 0 0 188.631579-188.631579V-20.210526a107.789474 107.789474 0 0 0-107.789474-107.789474H107.789474a107.789474 107.789474 0 0 0-107.789474 107.789474v80.842105A188.631579 188.631579 0 0 0 188.631579 249.263158h700.631579z m0-64.673684h-700.631579a123.957895 123.957895 0 0 1-123.957895-123.957895V-20.210526a43.115789 43.115789 0 0 1 43.11579-43.11579h862.315789a43.115789 43.115789 0 0 1 43.11579 43.11579v80.842105a123.957895 123.957895 0 0 1-123.957895 123.957895zM538.947368 896c66.506105 0 127.946105-21.935158 177.421474-58.906947l1.778526 0.808421 1.724632-3.503158A296.421053 296.421053 0 1 0 538.947368 896z m159.043369-127.838316l-389.820632-190.248421a231.747368 231.747368 0 1 1 389.820632 190.248421zM538.947368 831.326316a231.801263 231.801263 0 0 1-228.405894-192.242527l337.81221 164.864A230.723368 230.723368 0 0 1 538.947368 831.326316z"  horiz-adv-x="1077" />

    
    <glyph glyph-name="ding" unicode="&#59198;" d="M383.630222 889.742222A26.908444 26.908444 0 0 0 418.104889 889.742222l3.413333-3.413333 56.775111-67.697778a263.907556 263.907556 0 0 0 60.984889-179.2l-0.853333-13.994667 31.061333-37.091555c141.824 38.456889 291.896889 4.949333 388.266667-100.693333l9.443555-10.808889 32.085334-38.229334c8.533333-10.126222 8.248889-24.632889 0.113778-34.474666l-3.413334-3.413334L739.754667 185.799111l226.304-269.653333a26.908444 26.908444 0 0 0-41.187556-34.531556l-226.304 269.653334-313.571555-263.168a26.908444 26.908444 0 0 0-34.474667-0.113778l-3.413333 3.413333-32.085334 38.229333c-92.216889 109.909333-104.789333 261.347556-48.071111 394.581334l5.916445 13.312-33.564445 39.992889c-61.724444 7.224889-121.571556 34.247111-166.627555 82.318222L63.345778 470.471111 6.456889 538.168889a26.908444 26.908444 0 0 0-0.113778 34.417778l3.413333 3.413333L383.630222 889.742222z m13.994667-58.481778L64.938667 552.106667l39.537777-47.047111c35.043556-41.813333 85.219556-67.640889 141.084445-74.126223 13.596444-1.592889 26.112-8.362667 34.929778-18.887111l33.564444-39.992889a53.76 53.76 0 0 0 7.566222-57.230222c-56.718222-122.083556-44.259556-256.625778 34.588445-350.606222l14.791111-17.635556 569.799111 478.094223-14.791111 17.635555c-79.189333 94.435556-211.057778 129.820444-342.471111 94.208a53.76 53.76 0 0 0-55.182222 17.351111l-31.175112 37.034667a53.76 53.76 0 0 0-12.344888 39.480889 210.147556 210.147556 0 0 1-47.729778 153.770666l-39.480889 47.104z"  horiz-adv-x="1024" />

    
    <glyph glyph-name="diandian" unicode="&#59174;" d="M512 896a512 512 0 0 0 512-512v-512H512A512 512 0 0 0 512 896z"  horiz-adv-x="1024" />

    
    <glyph glyph-name="dingwei" unicode="&#59175;" d="M941.868925 457.043479A438.956521 438.956521 0 0 1 64.019879 457.043479a437.484587 437.484587 0 0 1 125.626425-307.186369h-0.127994l1.727923-1.79192 2.687881-2.623884 248.180987-248.180987a85.948186 85.948186 0 0 1 121.594604 0l248.180987 248.180987 2.687881 2.623884 1.791921 1.79192h-0.191992a437.292595 437.292595 0 0 1 125.690423 307.186369zM563.8377 0.551736c-60.797302-60.669308-60.797302-60.797302-121.594605 0l-197.751224 198.775179a363.50387 363.50387 0 0 0-107.259241 257.716564 365.74377 365.74377 0 1 0 731.551538 0 363.375875 363.375875 0 0 0-107.259241-257.716564l-197.751224-198.775179zM503.040398 676.553738a219.510259 219.510259 0 1 1 0-438.956521 219.510259 219.510259 0 0 1 0 438.956521z m0-365.807767a146.297508 146.297508 0 1 0 0 292.659013 146.297508 146.297508 0 0 0 0-292.659013z"  horiz-adv-x="1024" />

    
    <glyph glyph-name="ertong" unicode="&#59176;" d="M902.136782 650.244546l-207.714557-185.084575v-522.230339c0-19.45564-7.782256-36.095332-23.449166-50.072674a81.816086 81.816086 0 0 0-56.318958-20.838014c-21.861996 0-40.498451 6.911872-56.165361 20.838014-15.66691 14.130939-23.551564 30.719432-23.551564 50.175072V186.381128H489.472417v-243.349098c0-19.45564-7.782256-36.044133-23.449166-50.021475a81.713688 81.713688 0 0 0-56.165361-20.838014c-21.708398 0-40.54965 6.860673-56.21656 20.838014-15.615711 13.977341-23.397967 30.719432-23.397968 50.021475V465.159971L122.426407 650.244546C109.063454 662.020329 102.407577 676.356063 102.407577 693.251751c0 17.049285 6.655877 31.33382 19.967631 43.007204a72.190664 72.190664 0 0 0 48.690299 17.766072c18.687654 0 34.815356-5.836692 48.024712-17.766072l162.096201-144.227732h261.780757l162.096201 144.381329c13.209356 11.775782 29.439455 17.766071 48.280707 17.766072 19.097247 0 35.173749-5.887891 48.280707-17.766072 13.209356-12.185375 19.967631-26.777105 19.967631-43.416796 0.409592-16.793289-6.348683-30.975427-19.455641-42.75121zM625.047509 854.682364c31.026626-27.647489 46.437541-61.182868 46.437541-100.50374 0-39.269674-15.564512-72.702655-46.437541-100.503741-31.026626-27.647489-68.65793-41.317636-112.791514-41.317636-44.235982 0-81.61129 13.823744-112.791513 41.317636-31.026626 27.647489-46.437541 61.234067-46.437541 100.503741 0 39.320873 15.564512 72.702655 46.437541 100.50374C430.439909 882.329853 468.071213 896 512.204796 896c44.133584 0 81.764887-13.823744 112.791514-41.317636z"  horiz-adv-x="1024" />

    
    </font>
</defs>
</svg>
